<?xml version="1.0" encoding="UTF-8" standalone="no"?>
<!DOCTYPE svg PUBLIC "-//W3C//DTD SVG 1.1//EN" "http://www.w3.org/Graphics/SVG/1.1/DTD/svg11.dtd">
<svg width="100%" height="100%" viewBox="0 0 143 28" version="1.1" xmlns="http://www.w3.org/2000/svg" xmlns:xlink="http://www.w3.org/1999/xlink" xml:space="preserve" xmlns:serif="http://www.serif.com/" style="fill-rule:evenodd;clip-rule:evenodd;stroke-linejoin:round;stroke-miterlimit:1.5;">
    <g transform="matrix(1,0,0,1,-3662.45,-343.249)">
        <g transform="matrix(1,0,0,1,-0.556256,0)">
            <g id="step-facebook" transform="matrix(0.75,0,0,0.75,3508.83,259.27)">
                <g transform="matrix(1.84056,0,0,1.86906,-6720.83,-335.252)">
                    <path d="M3866.38,244.165C3866.38,241.468 3864.16,239.278 3861.42,239.278L3768.18,239.278C3765.44,239.278 3763.21,241.468 3763.21,244.165L3763.21,253.939C3763.21,256.636 3765.44,258.826 3768.18,258.826L3861.42,258.826C3864.16,258.826 3866.38,256.636 3866.38,253.939L3866.38,244.165Z"/>
                </g>
                <g transform="matrix(1.80623,0,0,1.66763,-6589.87,-285.085)">
                    <path d="M3866.38,244.165C3866.38,241.468 3864.36,239.278 3861.87,239.278L3767.72,239.278C3765.23,239.278 3763.21,241.468 3763.21,244.165L3763.21,253.939C3763.21,256.636 3765.23,258.826 3767.72,258.826L3861.87,258.826C3864.36,258.826 3866.38,256.636 3866.38,253.939L3866.38,244.165Z" style="fill:rgb(13,13,13);"/>
                </g>
                <g transform="matrix(0.472721,0,0,1.66763,-1571.61,-285.085)">
                    <path d="M3866.38,239.278L3780.45,239.278C3770.94,239.278 3763.21,241.468 3763.21,244.165L3763.21,253.939C3763.21,256.636 3770.94,258.826 3780.45,258.826L3866.38,258.826L3866.38,239.278Z" style="fill:rgb(242,242,242);"/>
                </g>
                <g transform="matrix(0.608319,0,0,0.608319,217.129,115.641)">
                    <path d="M24,4C12.954,4 4,12.954 4,24C4,35.046 12.954,44 24,44C35.046,44 44,35.046 44,24C44,12.954 35.046,4 24,4Z" style="fill-rule:nonzero;"/>
                    <path d="M26.707,29.301L31.883,29.301L32.696,24.043L26.707,24.043L26.707,21.169C26.707,18.985 27.421,17.048 29.464,17.048L32.747,17.048L32.747,12.46C32.17,12.382 30.95,12.212 28.645,12.212C23.831,12.212 21.009,14.754 21.009,20.546L21.009,24.044L16.06,24.044L16.06,29.302L21.008,29.302L21.008,43.754C21.988,43.9 22.981,44 24,44C24.921,44 25.82,43.916 26.707,43.796L26.707,29.301Z" style="fill:white;fill-rule:nonzero;"/>
                </g>
                <g transform="matrix(1.33333,0,0,1.33333,-4628.84,-72.8495)">
                    <text x="3670.8px" y="155.296px" style="font-family:'Verdana', sans-serif;font-size:8px;fill:white;">Connect on F<tspan x="3723.21px 3728.01px " y="155.296px 155.296px ">ac</tspan>ebook</text>
                </g>
                <g transform="matrix(1.33333,0,0,1.33333,-4812.04,-199.162)">
                    <path d="M3801.92,234.229L3801.92,259.87" style="fill:none;stroke:black;stroke-width:1.5px;"/>
                </g>
            </g>
        </g>
    </g>
</svg>
