<?xml version="1.0" encoding="UTF-8" standalone="no"?>
<!DOCTYPE svg PUBLIC "-//W3C//DTD SVG 1.1//EN" "http://www.w3.org/Graphics/SVG/1.1/DTD/svg11.dtd">
<svg width="100%" height="100%" viewBox="0 0 143 28" version="1.1" xmlns="http://www.w3.org/2000/svg" xmlns:xlink="http://www.w3.org/1999/xlink" xml:space="preserve" xmlns:serif="http://www.serif.com/" style="fill-rule:evenodd;clip-rule:evenodd;stroke-linecap:round;stroke-linejoin:round;stroke-miterlimit:1.5;">
    <g transform="matrix(1,0,0,1,-3763.21,-235.351)">
        <g transform="matrix(1,0,0,1,-0.556256,0)">
            <g id="step-email" transform="matrix(0.75,0,0,0.75,3609.59,151.371)">
                <g transform="matrix(1.84056,0,0,1.86906,-6720.83,-335.252)">
                    <path d="M3866.38,244.165C3866.38,241.468 3864.16,239.278 3861.42,239.278L3768.18,239.278C3765.44,239.278 3763.21,241.468 3763.21,244.165L3763.21,253.939C3763.21,256.636 3765.44,258.826 3768.18,258.826L3861.42,258.826C3864.16,258.826 3866.38,256.636 3866.38,253.939L3866.38,244.165Z"/>
                </g>
                <g transform="matrix(1.80623,0,0,1.66763,-6589.87,-285.085)">
                    <path d="M3866.38,244.165C3866.38,241.468 3864.36,239.278 3861.87,239.278L3767.72,239.278C3765.23,239.278 3763.21,241.468 3763.21,244.165L3763.21,253.939C3763.21,256.636 3765.23,258.826 3767.72,258.826L3861.87,258.826C3864.36,258.826 3866.38,256.636 3866.38,253.939L3866.38,244.165Z" style="fill:rgb(242,242,242);"/>
                </g>
                <g transform="matrix(0.472721,0,0,1.66763,-1571.61,-285.085)">
                    <path d="M3866.38,239.278L3780.45,239.278C3770.94,239.278 3763.21,241.468 3763.21,244.165L3763.21,253.939C3763.21,256.636 3770.94,258.826 3780.45,258.826L3866.38,258.826L3866.38,239.278Z"/>
                </g>
                <g transform="matrix(1,0,0,1,1.56944,-3.95125)">
                    <path d="M242.832,128.432C242.832,126.599 241.344,125.111 239.511,125.111L220.26,125.111C218.427,125.111 216.939,126.599 216.939,128.432L216.939,139.951C216.939,141.784 218.427,143.272 220.26,143.272L239.511,143.272C241.344,143.272 242.832,141.784 242.832,139.951L242.832,128.432Z" style="fill:white;stroke:black;stroke-width:0.95px;"/>
                    <g transform="matrix(1,0,0,1,216.464,124.636)">
                        <path d="M3.084,6.848L3.084,12.389" style="fill:none;stroke:black;stroke-width:1px;"/>
                    </g>
                    <g transform="matrix(1,0,0,1,236.9,124.636)">
                        <path d="M3.084,6.848L3.084,12.389" style="fill:none;stroke:black;stroke-width:1px;"/>
                    </g>
                    <g transform="matrix(1,0,0,1.47449,0,-59.8541)">
                        <path d="M218.58,126.144L229.886,133.411L241.207,126.153" style="fill:none;stroke:black;stroke-width:0.75px;"/>
                    </g>
                </g>
                <g transform="matrix(1.33333,0,0,1.33333,-4628.84,-72.8495)">
                    <text x="3674.7px" y="155.296px" style="font-family:'Verdana', sans-serif;font-size:8px;">Send Email to Lead</text>
                </g>
                <g transform="matrix(1.33333,0,0,1.33333,-4812.04,-199.162)">
                    <path d="M3801.92,234.229L3801.92,259.87" style="fill:none;stroke:black;stroke-width:1.5px;stroke-linecap:butt;"/>
                </g>
            </g>
        </g>
    </g>
</svg>
