<?xml version="1.0" encoding="UTF-8" standalone="no"?>
<!DOCTYPE svg PUBLIC "-//W3C//DTD SVG 1.1//EN" "http://www.w3.org/Graphics/SVG/1.1/DTD/svg11.dtd">
<svg width="100%" height="100%" viewBox="0 0 65 39" version="1.1" xmlns="http://www.w3.org/2000/svg" xmlns:xlink="http://www.w3.org/1999/xlink" xml:space="preserve" xmlns:serif="http://www.serif.com/" style="fill-rule:evenodd;clip-rule:evenodd;stroke-linejoin:round;stroke-miterlimit:2;">
    <g transform="matrix(1,0,0,1,-3381.22,-244.767)">
        <g transform="matrix(1,0,0,1,-0.556256,0)">
            <g id="step-meeting" transform="matrix(1,0,0,1,3400.88,244.767)">
                <path d="M3,2C1.344,2 0,3.344 0,5L0,23C0,24.656 1.344,26 3,26L23,26C24.656,26 26,24.656 26,23L26,5C26,3.344 24.656,2 23,2L3,2Z" style="fill:white;fill-rule:nonzero;"/>
                <path d="M7,0C6.449,0 6,0.449 6,1L6,4C6,4.551 6.449,5 7,5C7.551,5 8,4.551 8,4L8,1C8,0.449 7.551,0 7,0ZM19,0C18.449,0 18,0.449 18,1L18,4C18,4.551 18.449,5 19,5C19.551,5 20,4.551 20,4L20,1C20,0.449 19.551,0 19,0ZM3,2C1.344,2 0,3.344 0,5L0,23C0,24.656 1.344,26 3,26L23,26C24.656,26 26,24.656 26,23L26,5C26,3.344 24.656,2 23,2L21,2L21,4C21,5.105 20.105,6 19,6C17.895,6 17,5.105 17,4L17,2L9,2L9,4C9,5.105 8.105,6 7,6C5.895,6 5,5.105 5,4L5,2L3,2ZM2,9L24,9L24,23C24,23.551 23.551,24 23,24L3,24C2.449,24 2,23.551 2,23L2,9ZM9,12L9,14.313L13.813,14.313L10.031,21.969L13.5,21.969L16.969,13.531L16.969,12L9,12Z" style="fill-rule:nonzero;"/>
                <g transform="matrix(1,0,0,1,-3700.45,-118.065)">
                    <text x="3680.82px" y="155.296px" style="font-family:'Verdana', sans-serif;font-size:8px;">Setup a Meeting</text>
                </g>
            </g>
        </g>
    </g>
</svg>
