<?xml version="1.0" encoding="UTF-8" standalone="no"?>
<!DOCTYPE svg PUBLIC "-//W3C//DTD SVG 1.1//EN" "http://www.w3.org/Graphics/SVG/1.1/DTD/svg11.dtd">
<svg width="100%" height="100%" viewBox="0 0 46 31" version="1.1" xmlns="http://www.w3.org/2000/svg" xmlns:xlink="http://www.w3.org/1999/xlink" xml:space="preserve" xmlns:serif="http://www.serif.com/" style="fill-rule:evenodd;clip-rule:evenodd;stroke-linejoin:round;stroke-miterlimit:2;">
    <g transform="matrix(1,0,0,1,-3511.71,-467.776)">
        <g transform="matrix(1,0,0,1,-0.556256,0)">
            <g id="step-score" transform="matrix(0.75,0,0,0.75,3359.81,382.953)">
                <g transform="matrix(3.5689,0,0,3.5689,-12346.9,-1605.04)">
                    <text x="3520.34px" y="490.616px" style="font-family:'Verdana', sans-serif;font-size:8px;fill:white;stroke:rgb(13,13,13);stroke-width:0.37px;">20</text>
                </g>
                <g transform="matrix(1,0,0,1,-52.6686,16.7018)">
                    <g transform="matrix(1.33333,0,0,0.820048,-4479,-270.605)">
                        <path d="M3554.38,467.574L3554.38,476.5" style="fill:none;stroke:black;stroke-width:1px;stroke-linecap:round;stroke-miterlimit:1.5;"/>
                    </g>
                    <g transform="matrix(8.16431e-17,-1.33333,0.820048,5.02134e-17,-126.925,4855.66)">
                        <path d="M3554.38,467.574L3554.38,476.5" style="fill:none;stroke:black;stroke-width:1px;stroke-linecap:round;stroke-miterlimit:1.5;"/>
                    </g>
                </g>
                <g transform="matrix(1,0,0,1,-0.0705428,0.822704)">
                    <g>
                        <g transform="matrix(1.33333,0,0,0.820048,-4479,-270.605)">
                            <path d="M3554.38,467.574L3554.38,476.5" style="fill:none;stroke:black;stroke-width:1px;stroke-linecap:round;stroke-miterlimit:1.5;"/>
                        </g>
                        <g transform="matrix(8.16431e-17,-1.33333,0.820048,5.02134e-17,-126.925,4855.66)">
                            <path d="M3554.38,467.574L3554.38,476.5" style="fill:none;stroke:black;stroke-width:1px;stroke-linecap:round;stroke-miterlimit:1.5;"/>
                        </g>
                    </g>
                    <g transform="matrix(1,0,0,1,0,15.8791)">
                        <g transform="matrix(1.33333,0,0,0.820048,-4479,-270.605)">
                            <path d="M3554.38,467.574L3554.38,476.5" style="fill:none;stroke:black;stroke-width:1px;stroke-linecap:round;stroke-miterlimit:1.5;"/>
                        </g>
                        <g transform="matrix(8.16431e-17,-1.33333,0.820048,5.02134e-17,-126.925,4855.66)">
                            <path d="M3554.38,467.574L3554.38,476.5" style="fill:none;stroke:black;stroke-width:1px;stroke-linecap:round;stroke-miterlimit:1.5;"/>
                        </g>
                    </g>
                    <g transform="matrix(1,0,0,1,0,31.7582)">
                        <g transform="matrix(1.33333,0,0,0.820048,-4479,-270.605)">
                            <path d="M3554.38,467.574L3554.38,476.5" style="fill:none;stroke:black;stroke-width:1px;stroke-linecap:round;stroke-miterlimit:1.5;"/>
                        </g>
                        <g transform="matrix(8.16431e-17,-1.33333,0.820048,5.02134e-17,-126.925,4855.66)">
                            <path d="M3554.38,467.574L3554.38,476.5" style="fill:none;stroke:black;stroke-width:1px;stroke-linecap:round;stroke-miterlimit:1.5;"/>
                        </g>
                    </g>
                </g>
            </g>
        </g>
    </g>
</svg>
