<?xml version="1.0" encoding="UTF-8" standalone="no"?>
<!DOCTYPE svg PUBLIC "-//W3C//DTD SVG 1.1//EN" "http://www.w3.org/Graphics/SVG/1.1/DTD/svg11.dtd">
<svg width="100%" height="100%" viewBox="0 0 143 28" version="1.1" xmlns="http://www.w3.org/2000/svg" xmlns:xlink="http://www.w3.org/1999/xlink" xml:space="preserve" xmlns:serif="http://www.serif.com/" style="fill-rule:evenodd;clip-rule:evenodd;stroke-linejoin:round;stroke-miterlimit:1.5;">
    <g transform="matrix(1,0,0,1,-3481.12,-169.226)">
        <g transform="matrix(1,0,0,1,-0.556256,0)">
            <g id="step-chat" transform="matrix(0.75,0,0,0.75,3327.5,85.2471)">
                <g transform="matrix(1.84056,0,0,1.86906,-6720.83,-335.252)">
                    <path d="M3866.38,244.165C3866.38,241.468 3864.16,239.278 3861.42,239.278L3768.18,239.278C3765.44,239.278 3763.21,241.468 3763.21,244.165L3763.21,253.939C3763.21,256.636 3765.44,258.826 3768.18,258.826L3861.42,258.826C3864.16,258.826 3866.38,256.636 3866.38,253.939L3866.38,244.165Z"/>
                </g>
                <g transform="matrix(1.80623,0,0,1.66763,-6589.87,-285.085)">
                    <path d="M3866.38,244.165C3866.38,241.468 3864.36,239.278 3861.87,239.278L3767.72,239.278C3765.23,239.278 3763.21,241.468 3763.21,244.165L3763.21,253.939C3763.21,256.636 3765.23,258.826 3767.72,258.826L3861.87,258.826C3864.36,258.826 3866.38,256.636 3866.38,253.939L3866.38,244.165Z" style="fill:rgb(242,242,242);"/>
                </g>
                <g transform="matrix(0.472721,0,0,1.66763,-1571.61,-285.085)">
                    <path d="M3866.38,239.278L3780.45,239.278C3770.94,239.278 3763.21,241.468 3763.21,244.165L3763.21,253.939C3763.21,256.636 3770.94,258.826 3780.45,258.826L3866.38,258.826L3866.38,239.278Z"/>
                </g>
                <g transform="matrix(1.32699,0,0,1.32699,-132.689,-48.437)">
                    <path d="M274.911,125.111C280.958,125.111 285.868,129.18 285.868,134.192C285.868,139.203 280.958,143.272 274.911,143.272C273.06,143.272 271.315,142.891 269.785,142.218C269.283,141.997 264.045,145.516 264.045,145.516C264.045,145.516 267.378,140.804 266.947,140.426C265.091,138.799 263.953,136.604 263.953,134.192C263.953,129.18 268.863,125.111 274.911,125.111Z" style="fill:white;"/>
                    <path d="M269.847,136.448L273.736,130.481L276.631,133.032L280.808,130.6L276.898,136.469L273.706,134.192L269.847,136.448Z"/>
                </g>
                <g transform="matrix(1.33333,0,0,1.33333,-4628.84,-72.8495)">
                    <text x="3675.1px" y="155.296px" style="font-family:'Verdana', sans-serif;font-size:8px;">Chat on Messenger</text>
                </g>
                <g transform="matrix(1.33333,0,0,1.33333,-4812.04,-199.162)">
                    <path d="M3801.92,234.229L3801.92,259.87" style="fill:none;stroke:black;stroke-width:1.5px;"/>
                </g>
            </g>
        </g>
    </g>
</svg>
