<?xml version="1.0" encoding="UTF-8" standalone="no"?>
<!DOCTYPE svg PUBLIC "-//W3C//DTD SVG 1.1//EN" "http://www.w3.org/Graphics/SVG/1.1/DTD/svg11.dtd">
<svg width="100%" height="100%" viewBox="0 0 143 28" version="1.1" xmlns="http://www.w3.org/2000/svg" xmlns:xlink="http://www.w3.org/1999/xlink" xml:space="preserve" xmlns:serif="http://www.serif.com/" style="fill-rule:evenodd;clip-rule:evenodd;stroke-linejoin:round;stroke-miterlimit:1.5;">
    <g transform="matrix(1,0,0,1,-3236.57,-340.275)">
        <g transform="matrix(1,0,0,1,-0.556256,0)">
            <g id="step-linkedin" transform="matrix(0.75,0,0,0.75,3082.95,256.296)">
                <g transform="matrix(1.84056,0,0,1.86906,-6720.83,-335.252)">
                    <path d="M3866.38,244.165C3866.38,241.468 3864.16,239.278 3861.42,239.278L3768.18,239.278C3765.44,239.278 3763.21,241.468 3763.21,244.165L3763.21,253.939C3763.21,256.636 3765.44,258.826 3768.18,258.826L3861.42,258.826C3864.16,258.826 3866.38,256.636 3866.38,253.939L3866.38,244.165Z"/>
                </g>
                <g transform="matrix(1.80623,0,0,1.66763,-6589.87,-285.085)">
                    <path d="M3866.38,244.165C3866.38,241.468 3864.36,239.278 3861.87,239.278L3767.72,239.278C3765.23,239.278 3763.21,241.468 3763.21,244.165L3763.21,253.939C3763.21,256.636 3765.23,258.826 3767.72,258.826L3861.87,258.826C3864.36,258.826 3866.38,256.636 3866.38,253.939L3866.38,244.165Z" style="fill:rgb(13,13,13);"/>
                </g>
                <g transform="matrix(0.472721,0,0,1.66763,-1571.61,-285.085)">
                    <path d="M3866.38,239.278L3780.45,239.278C3770.94,239.278 3763.21,241.468 3763.21,244.165L3763.21,253.939C3763.21,256.636 3770.94,258.826 3780.45,258.826L3866.38,258.826L3866.38,239.278Z" style="fill:rgb(242,242,242);"/>
                </g>
                <g transform="matrix(0.917853,0,0,0.917853,219.797,118.308)">
                    <path d="M21.125,0L4.875,0C2.184,0 0,2.184 0,4.875L0,21.125C0,23.816 2.184,26 4.875,26L21.125,26C23.816,26 26,23.816 26,21.125L26,4.875C26,2.184 23.816,0 21.125,0Z" style="fill:white;fill-rule:nonzero;"/>
                    <path d="M21.125,0L4.875,0C2.184,0 0,2.184 0,4.875L0,21.125C0,23.816 2.184,26 4.875,26L21.125,26C23.816,26 26,23.816 26,21.125L26,4.875C26,2.184 23.816,0 21.125,0ZM8.039,22.07L4,22.07L3.977,9.977L8.016,9.977L8.039,22.07ZM5.918,8.395L5.895,8.395C4.574,8.395 3.723,7.484 3.723,6.352C3.723,5.191 4.602,4.313 5.945,4.313C7.289,4.313 8.113,5.191 8.141,6.352C8.141,7.484 7.285,8.395 5.918,8.395ZM22.043,22.07L17.969,22.07L17.969,15.5C17.969,13.91 17.547,12.828 16.125,12.828C15.039,12.828 14.453,13.559 14.172,14.266C14.066,14.52 14.039,14.867 14.039,15.223L14.039,22.07L9.945,22.07L9.922,9.977L14.016,9.977L14.039,11.684C14.563,10.875 15.434,9.73 17.52,9.73C20.105,9.73 22.039,11.418 22.039,15.047L22.039,22.07L22.043,22.07Z" style="fill-rule:nonzero;"/>
                </g>
                <g transform="matrix(1.33333,0,0,1.33333,-4628.84,-72.8495)">
                    <text x="3672.22px" y="155.296px" style="font-family:'Verdana', sans-serif;font-size:8px;fill:white;">Connect on LinkedIn</text>
                </g>
                <g transform="matrix(1.33333,0,0,1.33333,-4812.04,-199.162)">
                    <path d="M3801.92,234.229L3801.92,259.87" style="fill:none;stroke:black;stroke-width:1.5px;"/>
                </g>
            </g>
        </g>
    </g>
</svg>
