<?xml version="1.0" encoding="UTF-8" standalone="no"?>
<!DOCTYPE svg PUBLIC "-//W3C//DTD SVG 1.1//EN" "http://www.w3.org/Graphics/SVG/1.1/DTD/svg11.dtd">
<svg width="100%" height="100%" viewBox="0 0 65 36" version="1.1" xmlns="http://www.w3.org/2000/svg" xmlns:xlink="http://www.w3.org/1999/xlink" xml:space="preserve" xmlns:serif="http://www.serif.com/" style="fill-rule:evenodd;clip-rule:evenodd;stroke-linejoin:round;stroke-miterlimit:1.5;">
    <g transform="matrix(1,0,0,1,-3785.36,-133.306)">
        <g transform="matrix(1,0,0,1,-0.556256,0)">
            <g id="step-listadd" transform="matrix(1.26809,0,0,1.26809,3052.69,208.8)">
                <g transform="matrix(1,0,0,1,591.963,-61.1044)">
                    <g>
                        <g transform="matrix(1.08036,0,0,1.05612,-0.835123,-0.550011)">
                            <path d="M16.324,4.673L13.29,2.008L4.461,2.008L4.461,17.594L16.324,17.594L16.324,4.673Z"/>
                        </g>
                        <g transform="matrix(0.985677,0,0,0.990437,0.148851,0.0937314)">
                            <path d="M16.324,4.638L13.3,2.008L4.461,2.008L4.461,17.594L16.324,17.594L16.324,4.638Z" style="fill:white;"/>
                        </g>
                        <g transform="matrix(0.154316,0.988022,0.988022,-0.154316,9.1565,-10.7381)">
                            <path d="M13.29,2.008L16.398,2.008L16.398,4.607L13.29,2.008Z" style="fill:rgb(230,230,230);"/>
                        </g>
                    </g>
                    <g>
                        <g transform="matrix(0.484248,0,0,0.484248,2.30848,0.973284)">
                            <circle cx="5.972" cy="3.618" r="0.276"/>
                        </g>
                        <g transform="matrix(0.484248,0,0,0.484248,2.30848,1.49522)">
                            <circle cx="5.972" cy="3.618" r="0.276"/>
                        </g>
                        <g transform="matrix(0.484248,0,0,0.484248,2.30848,2.01716)">
                            <circle cx="5.972" cy="3.618" r="0.276"/>
                        </g>
                        <g transform="matrix(0.484248,0,0,0.484248,2.30848,2.5391)">
                            <circle cx="5.972" cy="3.618" r="0.276"/>
                        </g>
                        <g transform="matrix(0.484248,0,0,0.484248,2.30848,3.06104)">
                            <circle cx="5.972" cy="3.618" r="0.276"/>
                        </g>
                        <g transform="matrix(0.484248,0,0,0.484248,2.30848,3.58298)">
                            <circle cx="5.972" cy="3.618" r="0.276"/>
                        </g>
                        <g transform="matrix(0.484248,0,0,0.484248,2.30848,4.10492)">
                            <circle cx="5.972" cy="3.618" r="0.276"/>
                        </g>
                        <g transform="matrix(0.484248,0,0,0.484248,2.30848,4.62686)">
                            <circle cx="5.972" cy="3.618" r="0.276"/>
                        </g>
                        <g transform="matrix(0.484248,0,0,0.484248,2.30848,5.1488)">
                            <circle cx="5.972" cy="3.618" r="0.276"/>
                        </g>
                        <g transform="matrix(0.484248,0,0,0.484248,2.30848,5.67074)">
                            <circle cx="5.972" cy="3.618" r="0.276"/>
                        </g>
                        <g transform="matrix(0.484248,0,0,0.484248,2.30848,6.19268)">
                            <circle cx="5.972" cy="3.618" r="0.276"/>
                        </g>
                        <g transform="matrix(0.484248,0,0,0.484248,2.30848,6.71461)">
                            <circle cx="5.972" cy="3.618" r="0.276"/>
                        </g>
                        <g transform="matrix(0.484248,0,0,0.484248,2.30848,7.23655)">
                            <circle cx="5.972" cy="3.618" r="0.276"/>
                        </g>
                        <g transform="matrix(0.484248,0,0,0.484248,2.30848,7.75849)">
                            <circle cx="5.972" cy="3.618" r="0.276"/>
                        </g>
                        <g transform="matrix(0.484248,0,0,0.484248,2.30848,8.28043)">
                            <circle cx="5.972" cy="3.618" r="0.276"/>
                        </g>
                        <g transform="matrix(0.484248,0,0,0.484248,2.30848,8.80237)">
                            <circle cx="5.972" cy="3.618" r="0.276"/>
                        </g>
                        <g transform="matrix(0.484248,0,0,0.484248,2.30848,9.32431)">
                            <circle cx="5.972" cy="3.618" r="0.276"/>
                        </g>
                        <g transform="matrix(0.484248,0,0,0.484248,2.30848,9.84625)">
                            <circle cx="5.972" cy="3.618" r="0.276"/>
                        </g>
                        <g transform="matrix(0.484248,0,0,0.484248,2.30848,10.3682)">
                            <circle cx="5.972" cy="3.618" r="0.276"/>
                        </g>
                        <g transform="matrix(0.484248,0,0,0.484248,2.30848,10.8901)">
                            <circle cx="5.972" cy="3.618" r="0.276"/>
                        </g>
                        <g transform="matrix(0.484248,0,0,0.484248,2.30848,11.4121)">
                            <circle cx="5.972" cy="3.618" r="0.276"/>
                        </g>
                        <g transform="matrix(0.484248,0,0,0.484248,2.30848,11.934)">
                            <circle cx="5.972" cy="3.618" r="0.276"/>
                        </g>
                        <g transform="matrix(0.484248,0,0,0.484248,2.30848,12.4559)">
                            <circle cx="5.972" cy="3.618" r="0.276"/>
                        </g>
                        <g transform="matrix(0.484248,0,0,0.484248,2.30848,12.9779)">
                            <circle cx="5.972" cy="3.618" r="0.276"/>
                        </g>
                        <g transform="matrix(0.484248,0,0,0.484248,2.30848,13.4998)">
                            <circle cx="5.972" cy="3.618" r="0.276"/>
                        </g>
                        <g transform="matrix(0.484248,0,0,0.484248,2.30848,14.0218)">
                            <circle cx="5.972" cy="3.618" r="0.276"/>
                        </g>
                        <g transform="matrix(0.484248,0,0,0.484248,2.30848,14.5437)">
                            <circle cx="5.972" cy="3.618" r="0.276"/>
                        </g>
                        <g transform="matrix(0.484248,0,0,0.484248,2.30848,15.0656)">
                            <circle cx="5.972" cy="3.618" r="0.276"/>
                        </g>
                    </g>
                    <g>
                        <g>
                            <circle cx="7.324" cy="7.074" r="0.338"/>
                            <g transform="matrix(1,0,0,1.25757,-0.408106,-1.5838)">
                                <rect x="8.238" y="6.787" width="4.825" height="0.197"/>
                            </g>
                        </g>
                        <g transform="matrix(1,0,0,1,0,1.23556)">
                            <circle cx="7.324" cy="7.074" r="0.338"/>
                            <g transform="matrix(1,0,0,1.25757,-0.408106,-1.5838)">
                                <rect x="8.238" y="6.787" width="4.825" height="0.197"/>
                            </g>
                        </g>
                        <g transform="matrix(1,0,0,1,0,2.47112)">
                            <circle cx="7.324" cy="7.074" r="0.338"/>
                            <g transform="matrix(1,0,0,1.25757,-0.408106,-1.5838)">
                                <rect x="8.238" y="6.787" width="4.825" height="0.197"/>
                            </g>
                        </g>
                        <g transform="matrix(1,0,0,1,0,3.70667)">
                            <circle cx="7.324" cy="7.074" r="0.338"/>
                            <g transform="matrix(1,0,0,1.25757,-0.408106,-1.5838)">
                                <rect x="8.238" y="6.787" width="4.825" height="0.197"/>
                            </g>
                        </g>
                        <g transform="matrix(1,0,0,1,0,4.94223)">
                            <circle cx="7.324" cy="7.074" r="0.338"/>
                            <g transform="matrix(1,0,0,1.25757,-0.408106,-1.5838)">
                                <rect x="8.238" y="6.787" width="4.825" height="0.197"/>
                            </g>
                        </g>
                    </g>
                    <g transform="matrix(2.04107,0,0,2.04107,-16.3485,-17.0842)">
                        <g transform="matrix(1.06354,0,0,1.06354,-1.63807,-1.45757)">
                            <circle cx="16.349" cy="17.005" r="1.68"/>
                        </g>
                        <g transform="matrix(0.901432,0,0,0.901432,1.01225,1.29902)">
                            <circle cx="16.349" cy="17.005" r="1.68" style="fill:white;"/>
                        </g>
                        <g transform="matrix(0.682689,0,0,0.682689,4.96475,5.12171)">
                            <path d="M15.798,15.761L15.798,17.99" style="fill:none;stroke:black;stroke-width:0.33px;"/>
                        </g>
                        <g transform="matrix(0.682689,0,0,0.682689,4.96475,5.12171)">
                            <path d="M14.771,16.854L16.911,16.854" style="fill:none;stroke:black;stroke-width:0.33px;"/>
                        </g>
                    </g>
                </g>
                <g transform="matrix(0.788588,0,0,0.788588,-2324.79,-154.479)">
                    <text x="3681.16px" y="155.296px" style="font-family:'Verdana', sans-serif;font-size:8px;">Add Lead to List</text>
                </g>
            </g>
        </g>
    </g>
</svg>
