<?xml version="1.0" encoding="UTF-8" standalone="no"?>
<!DOCTYPE svg PUBLIC "-//W3C//DTD SVG 1.1//EN" "http://www.w3.org/Graphics/SVG/1.1/DTD/svg11.dtd">
<svg width="100%" height="100%" viewBox="0 0 143 28" version="1.1" xmlns="http://www.w3.org/2000/svg" xmlns:xlink="http://www.w3.org/1999/xlink" xml:space="preserve" xmlns:serif="http://www.serif.com/" style="fill-rule:evenodd;clip-rule:evenodd;stroke-linejoin:round;stroke-miterlimit:1.5;">
    <g transform="matrix(1,0,0,1,-3572.39,-83.184)">
        <g transform="matrix(1,0,0,1,-0.556256,0)">
            <g id="step-sms" transform="matrix(0.75,0,0,0.75,3418.77,-0.795199)">
                <g transform="matrix(1.84056,0,0,1.86906,-6720.83,-335.252)">
                    <path d="M3866.38,244.165C3866.38,241.468 3864.16,239.278 3861.42,239.278L3768.18,239.278C3765.44,239.278 3763.21,241.468 3763.21,244.165L3763.21,253.939C3763.21,256.636 3765.44,258.826 3768.18,258.826L3861.42,258.826C3864.16,258.826 3866.38,256.636 3866.38,253.939L3866.38,244.165Z"/>
                </g>
                <g transform="matrix(1.80623,0,0,1.66763,-6589.87,-285.085)">
                    <path d="M3866.38,244.165C3866.38,241.468 3864.36,239.278 3861.87,239.278L3767.72,239.278C3765.23,239.278 3763.21,241.468 3763.21,244.165L3763.21,253.939C3763.21,256.636 3765.23,258.826 3767.72,258.826L3861.87,258.826C3864.36,258.826 3866.38,256.636 3866.38,253.939L3866.38,244.165Z" style="fill:rgb(242,242,242);"/>
                </g>
                <g transform="matrix(0.472721,0,0,1.66763,-1571.61,-285.085)">
                    <path d="M3866.38,239.278L3780.45,239.278C3770.94,239.278 3763.21,241.468 3763.21,244.165L3763.21,253.939C3763.21,256.636 3770.94,258.826 3780.45,258.826L3866.38,258.826L3866.38,239.278Z"/>
                </g>
                <g transform="matrix(1.88778,0,0,1.88778,212.851,114.257)">
                    <g transform="matrix(1.10196,0,0,1.0348,-2.30352,0.0919673)">
                        <path d="M18.243,7.609C18.243,4.484 15.071,1.947 11.165,1.947C7.259,1.947 4.088,4.484 4.088,7.609C4.088,9.456 5.214,11.186 7.104,12.246C7.515,12.342 6.288,15.513 6.295,15.567C6.349,15.959 9.72,13.152 9.72,13.152C9.72,13.152 10.679,13.271 11.165,13.271C15.071,13.271 18.243,10.734 18.243,7.609Z" style="fill:white;"/>
                    </g>
                    <g transform="matrix(1.15423,0,0,1.15423,-2.20249,-1.0613)">
                        <g transform="matrix(3.61346,0,0,3.61346,5.6758,9.04406)">
                            <path d="M0.036,-0.233L0.177,-0.247C0.185,-0.199 0.202,-0.165 0.228,-0.143C0.254,-0.12 0.289,-0.109 0.333,-0.109C0.38,-0.109 0.415,-0.119 0.438,-0.139C0.462,-0.159 0.474,-0.182 0.474,-0.208C0.474,-0.225 0.469,-0.239 0.459,-0.251C0.449,-0.263 0.431,-0.273 0.407,-0.282C0.39,-0.288 0.351,-0.299 0.291,-0.313C0.214,-0.333 0.159,-0.356 0.128,-0.384C0.084,-0.424 0.062,-0.472 0.062,-0.528C0.062,-0.565 0.072,-0.599 0.093,-0.631C0.114,-0.662 0.143,-0.687 0.182,-0.703C0.221,-0.72 0.268,-0.728 0.323,-0.728C0.413,-0.728 0.481,-0.708 0.526,-0.669C0.572,-0.63 0.595,-0.577 0.598,-0.511L0.453,-0.505C0.447,-0.542 0.434,-0.568 0.413,-0.584C0.393,-0.6 0.362,-0.608 0.322,-0.608C0.28,-0.608 0.247,-0.6 0.223,-0.583C0.208,-0.571 0.2,-0.557 0.2,-0.538C0.2,-0.521 0.207,-0.507 0.222,-0.495C0.24,-0.479 0.284,-0.463 0.354,-0.447C0.425,-0.43 0.477,-0.413 0.51,-0.395C0.544,-0.378 0.571,-0.353 0.59,-0.323C0.609,-0.292 0.618,-0.254 0.618,-0.208C0.618,-0.167 0.607,-0.129 0.584,-0.093C0.561,-0.057 0.529,-0.031 0.487,-0.013C0.446,0.004 0.394,0.013 0.332,0.013C0.241,0.013 0.172,-0.008 0.123,-0.05C0.075,-0.092 0.046,-0.153 0.036,-0.233Z" style="fill-rule:nonzero;"/>
                        </g>
                        <g transform="matrix(3.61346,0,0,3.61346,9.08989,9.04406)">
                            <path d="M0.071,0L0.071,-0.716L0.287,-0.716L0.417,-0.228L0.545,-0.716L0.762,-0.716L0.762,0L0.628,0L0.628,-0.563L0.486,0L0.347,0L0.205,-0.563L0.205,0L0.071,0Z" style="fill-rule:nonzero;"/>
                        </g>
                        <g transform="matrix(3.61346,0,0,3.61346,13.1039,9.04406)">
                            <path d="M0.036,-0.233L0.177,-0.247C0.185,-0.199 0.202,-0.165 0.228,-0.143C0.254,-0.12 0.289,-0.109 0.333,-0.109C0.38,-0.109 0.415,-0.119 0.438,-0.139C0.462,-0.159 0.474,-0.182 0.474,-0.208C0.474,-0.225 0.469,-0.239 0.459,-0.251C0.449,-0.263 0.431,-0.273 0.407,-0.282C0.39,-0.288 0.351,-0.299 0.291,-0.313C0.214,-0.333 0.159,-0.356 0.128,-0.384C0.084,-0.424 0.062,-0.472 0.062,-0.528C0.062,-0.565 0.072,-0.599 0.093,-0.631C0.114,-0.662 0.143,-0.687 0.182,-0.703C0.221,-0.72 0.268,-0.728 0.323,-0.728C0.413,-0.728 0.481,-0.708 0.526,-0.669C0.572,-0.63 0.595,-0.577 0.598,-0.511L0.453,-0.505C0.447,-0.542 0.434,-0.568 0.413,-0.584C0.393,-0.6 0.362,-0.608 0.322,-0.608C0.28,-0.608 0.247,-0.6 0.223,-0.583C0.208,-0.571 0.2,-0.557 0.2,-0.538C0.2,-0.521 0.207,-0.507 0.222,-0.495C0.24,-0.479 0.284,-0.463 0.354,-0.447C0.425,-0.43 0.477,-0.413 0.51,-0.395C0.544,-0.378 0.571,-0.353 0.59,-0.323C0.609,-0.292 0.618,-0.254 0.618,-0.208C0.618,-0.167 0.607,-0.129 0.584,-0.093C0.561,-0.057 0.529,-0.031 0.487,-0.013C0.446,0.004 0.394,0.013 0.332,0.013C0.241,0.013 0.172,-0.008 0.123,-0.05C0.075,-0.092 0.046,-0.153 0.036,-0.233Z" style="fill-rule:nonzero;"/>
                        </g>
                    </g>
                </g>
                <g transform="matrix(1.33333,0,0,1.33333,-4628.84,-72.8495)">
                    <text x="3678.93px" y="155.296px" style="font-family:'Verdana', sans-serif;font-size:8px;">Send Mobile SMS</text>
                </g>
                <g transform="matrix(1.33333,0,0,1.33333,-4812.04,-199.162)">
                    <path d="M3801.92,234.229L3801.92,259.87" style="fill:none;stroke:black;stroke-width:1.5px;"/>
                </g>
            </g>
        </g>
    </g>
</svg>
