<?xml version="1.0" encoding="UTF-8" standalone="no"?>
<!DOCTYPE svg PUBLIC "-//W3C//DTD SVG 1.1//EN" "http://www.w3.org/Graphics/SVG/1.1/DTD/svg11.dtd">
<svg width="100%" height="100%" viewBox="0 0 18 16" version="1.1" xmlns="http://www.w3.org/2000/svg" xmlns:xlink="http://www.w3.org/1999/xlink" xml:space="preserve" xmlns:serif="http://www.serif.com/" style="fill-rule:evenodd;clip-rule:evenodd;stroke-linecap:round;stroke-linejoin:round;stroke-miterlimit:1.5;">
    <g transform="matrix(1,0,0,1,-3453.21,-175.418)">
        <g transform="matrix(1,0,0,1,-0.556256,0)">
            <g transform="matrix(0.75,0,0,0.75,3256.16,81.9407)">
                <path d="M274.911,125.111C280.958,125.111 285.868,129.18 285.868,134.192C285.868,139.203 280.958,143.272 274.911,143.272C273.06,143.272 271.315,142.891 269.785,142.218C269.283,141.997 265.639,144.187 265.639,144.187C265.639,144.187 267.378,140.804 266.947,140.426C265.091,138.799 263.953,136.604 263.953,134.192C263.953,129.18 268.863,125.111 274.911,125.111Z" style="fill:white;stroke:black;stroke-width:0.95px;"/>
                <path d="M269.847,136.448L273.736,130.481L276.631,133.032L280.808,130.6L276.898,136.469L273.706,134.192L269.847,136.448Z"/>
            </g>
        </g>
    </g>
</svg>
