<?xml version="1.0" encoding="UTF-8" standalone="no"?>
<!DOCTYPE svg PUBLIC "-//W3C//DTD SVG 1.1//EN" "http://www.w3.org/Graphics/SVG/1.1/DTD/svg11.dtd">
<svg width="100%" height="100%" viewBox="0 0 46 32" version="1.1" xmlns="http://www.w3.org/2000/svg" xmlns:xlink="http://www.w3.org/1999/xlink" xml:space="preserve" xmlns:serif="http://www.serif.com/" style="fill-rule:evenodd;clip-rule:evenodd;stroke-linejoin:round;stroke-miterlimit:2;">
    <g transform="matrix(1,0,0,1,-3605.39,-242.826)">
        <g transform="matrix(1,0,0,1,-0.556256,0)">
            <g transform="matrix(1,0,0,1,3604.95,234.826)">
                <path d="M36.5,12C35.174,12 33.91,12.256 32.742,12.705C31.321,10.48 28.836,9 26,9C23.893,9 21.982,9.821 20.553,11.152C18.815,9.221 16.303,8 13.5,8C8.253,8 4,12.253 4,17.5C4,18.292 4.108,19.058 4.29,19.793C2.291,21.349 1,23.771 1,26.5C1,31.194 4.806,35 9.5,35C9.913,35 10.316,34.961 10.714,34.904C12.027,37.903 15.017,40 18.5,40C21.662,40 24.416,38.269 25.88,35.707C26.556,35.893 27.265,36 28,36C30.62,36 32.938,34.735 34.398,32.789C35.077,32.927 35.78,33 36.5,33C42.299,33 47,28.299 47,22.5C47,16.701 42.299,12 36.5,12Z" style="fill-rule:nonzero;"/>
                <path d="M15.823,25C15.868,25 15.899,24.963 15.899,24.917C15.899,24.963 15.867,25 15.823,25ZM21.503,23.934C21.527,23.934 21.55,23.942 21.558,23.947C21.55,23.942 21.528,23.934 21.505,23.934C21.504,23.933 21.503,23.934 21.503,23.934ZM7.138,23.93C7.161,23.93 7.183,23.938 7.196,23.946C7.183,23.939 7.162,23.929 7.14,23.929C7.139,23.929 7.138,23.93 7.138,23.93ZM24.126,21.909C24.11,21.948 24.08,21.954 24.054,21.952C24.058,21.953 24.058,21.955 24.063,21.955C24.086,21.954 24.112,21.944 24.126,21.909ZM15.823,19C15.868,19 15.899,19.037 15.899,19.082C15.899,19.037 15.867,19 15.823,19ZM21.359,22.185C21.359,22.593 21.57,22.847 21.865,23.02C21.569,22.847 21.359,22.594 21.359,22.185ZM38.126,24.729C38.151,24.79 38.094,24.816 38.094,24.816C38.094,24.816 38.151,24.79 38.126,24.729ZM8.558,21C8.811,21 9.061,21.034 9.291,21.093C9.061,21.034 8.811,21 8.558,21ZM9.764,21.909C9.748,21.948 9.718,21.954 9.692,21.952C9.696,21.953 9.696,21.955 9.701,21.955C9.725,21.954 9.75,21.944 9.764,21.909ZM35.195,24.164C35.26,24.27 35.337,24.367 35.424,24.457C35.511,24.547 35.609,24.626 35.718,24.694C35.609,24.626 35.511,24.547 35.424,24.457C35.337,24.368 35.261,24.27 35.195,24.164ZM37.83,21.797C37.818,21.797 37.804,21.795 37.804,21.795C37.804,21.795 37.814,21.799 37.828,21.799C37.828,21.799 37.829,21.797 37.83,21.797ZM37.832,24.189C37.832,24.189 37.849,24.186 37.866,24.185C37.865,24.185 37.865,24.184 37.864,24.184C37.846,24.184 37.832,24.189 37.832,24.189Z" style="fill:white;fill-rule:nonzero;"/>
                <path d="M6.885,24.462C6.856,24.532 6.895,24.546 6.905,24.558C6.992,24.616 7.079,24.658 7.167,24.704C7.636,24.933 8.08,25 8.543,25C9.487,25 10.073,24.538 10.073,23.793L10.073,23.779C10.073,23.09 9.411,22.84 8.791,22.659L8.71,22.635C8.242,22.495 7.839,22.374 7.839,22.09L7.839,22.076C7.839,21.833 8.075,21.654 8.441,21.654C8.847,21.654 9.329,21.779 9.64,21.937C9.64,21.937 9.732,21.991 9.765,21.91C9.783,21.866 9.94,21.476 9.957,21.434C9.975,21.389 9.943,21.354 9.911,21.336C9.555,21.136 9.065,21 8.558,21L8.464,21.001C7.6,21.001 6.997,21.482 6.997,22.171L6.997,22.185C6.997,22.911 7.662,23.147 8.286,23.311L8.386,23.34C8.84,23.468 9.232,23.579 9.232,23.873L9.232,23.888C9.232,24.157 8.977,24.358 8.567,24.358C8.407,24.358 7.9,24.356 7.351,24.036C7.285,24 7.247,23.975 7.196,23.946C7.169,23.93 7.101,23.904 7.072,23.985L6.885,24.462ZM21.247,24.462C21.218,24.532 21.257,24.546 21.267,24.558C21.354,24.616 21.441,24.658 21.529,24.704C21.998,24.933 22.442,25 22.905,25C23.849,25 24.435,24.538 24.435,23.793L24.435,23.779C24.435,23.09 23.773,22.84 23.153,22.659L23.072,22.635C22.604,22.495 22.201,22.374 22.201,22.09L22.201,22.076C22.201,21.833 22.437,21.654 22.803,21.654C23.209,21.654 23.691,21.779 24.002,21.937C24.002,21.937 24.094,21.991 24.127,21.91C24.145,21.866 24.302,21.476 24.319,21.434C24.337,21.389 24.305,21.354 24.273,21.336C23.917,21.136 23.427,21 22.92,21L22.826,21.001C21.962,21.001 21.359,21.482 21.359,22.171L21.359,22.185C21.359,22.911 22.025,23.147 22.648,23.311L22.748,23.34C23.202,23.468 23.594,23.579 23.594,23.873L23.594,23.888C23.594,24.157 23.339,24.358 22.929,24.358C22.769,24.358 22.262,24.356 21.713,24.036C21.647,24 21.608,23.976 21.558,23.946C21.541,23.936 21.461,23.907 21.434,23.985L21.247,24.462ZM31.465,22.219C31.388,21.976 31.267,21.762 31.107,21.584C30.947,21.405 30.743,21.262 30.502,21.158C30.261,21.053 29.977,21 29.658,21C29.338,21 29.054,21.053 28.813,21.157C28.572,21.261 28.369,21.405 28.209,21.584C28.048,21.762 27.928,21.976 27.851,22.218C27.774,22.459 27.735,22.723 27.735,23.003C27.735,23.283 27.774,23.547 27.851,23.788C27.928,24.03 28.048,24.244 28.209,24.423C28.369,24.602 28.573,24.745 28.814,24.846C29.055,24.947 29.338,25 29.658,25C29.977,25 30.26,24.949 30.502,24.847C30.743,24.745 30.946,24.602 31.107,24.424C31.267,24.246 31.388,24.032 31.465,23.789C31.542,23.548 31.581,23.284 31.581,23.004C31.581,22.724 31.542,22.46 31.465,22.219M30.677,23.004C30.677,23.427 30.592,23.762 30.424,23.997C30.258,24.23 30.007,24.344 29.657,24.344C29.307,24.344 29.057,24.23 28.894,23.997C28.728,23.761 28.645,23.427 28.645,23.004C28.645,22.581 28.729,22.248 28.894,22.014C29.058,21.783 29.308,21.671 29.658,21.671C30.008,21.671 30.258,21.783 30.425,22.014C30.592,22.247 30.677,22.581 30.677,23.004M37.933,24.233C37.907,24.162 37.832,24.189 37.832,24.189C37.718,24.23 37.596,24.267 37.466,24.286C37.335,24.305 37.19,24.315 37.035,24.315C36.654,24.315 36.351,24.21 36.134,24.002C35.917,23.794 35.795,23.458 35.796,23.003C35.797,22.59 35.905,22.279 36.098,22.041C36.29,21.805 36.583,21.684 36.972,21.684C37.297,21.684 37.545,21.719 37.804,21.794C37.804,21.794 37.866,21.819 37.895,21.744C37.965,21.566 38.015,21.44 38.089,21.245C38.11,21.189 38.059,21.166 38.04,21.159C37.938,21.122 37.697,21.061 37.515,21.035C37.345,21.013 37.145,21 36.924,21C36.593,21 36.299,21.053 36.046,21.157C35.794,21.26 35.581,21.404 35.411,21.583C35.242,21.762 35.114,21.975 35.028,22.217C34.942,22.458 34.9,22.723 34.9,23.004C34.9,23.61 35.076,24.099 35.424,24.457C35.773,24.818 36.296,25 36.979,25C37.383,25 37.796,24.924 38.095,24.816C38.095,24.816 38.152,24.79 38.127,24.729L37.933,24.233ZM41.963,22.081C41.896,21.846 41.73,21.61 41.622,21.502C41.45,21.33 41.282,21.21 41.116,21.144C40.898,21.057 40.638,21 40.352,21C40.019,21 39.717,21.052 39.472,21.159C39.227,21.266 39.02,21.412 38.858,21.594C38.696,21.775 38.575,21.991 38.497,22.236C38.419,22.479 38.38,22.745 38.38,23.025C38.38,23.31 38.421,23.576 38.501,23.815C38.582,24.056 38.712,24.268 38.887,24.444C39.063,24.621 39.288,24.759 39.558,24.856C39.826,24.952 40.152,25.002 40.526,25.001C41.296,24.999 41.702,24.84 41.869,24.754C41.899,24.738 41.926,24.712 41.892,24.635L41.717,24.182C41.691,24.115 41.617,24.139 41.617,24.139C41.426,24.205 41.155,24.323 40.522,24.322C40.108,24.321 39.802,24.209 39.61,24.031C39.413,23.85 39.316,23.584 39.3,23.209L41.966,23.211C41.966,23.211 42.036,23.21 42.044,23.146C42.045,23.119 42.134,22.637 41.963,22.081M39.311,22.597C39.349,22.362 39.418,22.166 39.527,22.014C39.69,21.783 39.939,21.655 40.289,21.655C40.639,21.655 40.87,21.783 41.036,22.014C41.146,22.167 41.194,22.37 41.213,22.598L39.311,22.597ZM20.453,22.081C20.386,21.846 20.22,21.61 20.112,21.502C19.94,21.33 19.773,21.21 19.606,21.144C19.388,21.057 19.128,21 18.843,21C18.51,21 18.208,21.052 17.962,21.159C17.717,21.266 17.51,21.412 17.348,21.594C17.186,21.775 17.065,21.991 16.987,22.236C16.909,22.479 16.87,22.745 16.87,23.025C16.87,23.31 16.911,23.576 16.991,23.815C17.072,24.056 17.202,24.268 17.377,24.444C17.553,24.621 17.778,24.759 18.048,24.856C18.316,24.952 18.642,25.002 19.016,25.001C19.786,24.999 20.192,24.84 20.359,24.754C20.389,24.738 20.416,24.712 20.382,24.635L20.207,24.182C20.181,24.115 20.107,24.139 20.107,24.139C19.916,24.205 19.645,24.323 19.012,24.322C18.599,24.321 18.292,24.209 18.1,24.031C17.903,23.85 17.806,23.584 17.79,23.209L20.456,23.211C20.456,23.211 20.526,23.21 20.534,23.146C20.536,23.119 20.624,22.637 20.453,22.081M17.802,22.597C17.84,22.362 17.909,22.166 18.017,22.014C18.181,21.783 18.429,21.655 18.78,21.655C19.13,21.655 19.361,21.783 19.528,22.014C19.638,22.167 19.686,22.37 19.704,22.598L17.802,22.597ZM12.93,22.482C12.822,22.475 12.682,22.471 12.514,22.471C12.285,22.471 12.064,22.497 11.857,22.549C11.649,22.601 11.462,22.681 11.301,22.788C11.139,22.896 11.009,23.033 10.914,23.196C10.819,23.359 10.771,23.551 10.771,23.765C10.771,23.984 10.812,24.174 10.893,24.329C10.974,24.485 11.091,24.615 11.24,24.716C11.388,24.816 11.571,24.89 11.783,24.934C11.994,24.977 12.231,25 12.491,25C12.765,25 13.037,24.979 13.301,24.937C13.563,24.896 13.883,24.836 13.972,24.816C14.061,24.797 14.159,24.772 14.159,24.772C14.225,24.756 14.22,24.691 14.22,24.691L14.219,22.432C14.219,21.936 14.076,21.569 13.796,21.341C13.515,21.115 13.102,21 12.57,21C12.37,21 12.049,21.025 11.855,21.061C11.855,21.061 11.273,21.166 11.034,21.34C11.034,21.34 10.981,21.37 11.01,21.438L11.199,21.908C11.223,21.969 11.287,21.948 11.287,21.948C11.287,21.948 11.307,21.941 11.331,21.927C11.843,21.669 12.492,21.676 12.492,21.676C12.78,21.676 13.002,21.73 13.151,21.836C13.296,21.94 13.37,22.095 13.37,22.425L13.37,22.53C13.141,22.499 12.93,22.482 12.93,22.482M11.869,24.218C11.764,24.141 11.75,24.122 11.716,24.071C11.663,23.995 11.636,23.887 11.636,23.75C11.636,23.533 11.714,23.377 11.874,23.272C11.873,23.272 12.104,23.087 12.647,23.093C13.029,23.097 13.371,23.15 13.371,23.15L13.371,24.273C13.371,24.273 13.032,24.34 12.651,24.361C12.109,24.392 11.867,24.217 11.869,24.218M34.76,21.169C34.78,21.111 34.738,21.084 34.72,21.077C34.675,21.061 34.448,21.015 34.273,21.004C33.938,20.985 33.752,21.038 33.585,21.11C33.419,21.181 33.236,21.297 33.135,21.428L33.134,21.117C33.134,21.074 33.102,21.04 33.058,21.04L32.374,21.04C32.329,21.04 32.298,21.074 32.298,21.117L32.298,24.923C32.298,24.966 32.334,25 32.379,25L33.079,25C33.124,25 33.159,24.966 33.159,24.923L33.159,23.022C33.159,22.766 33.189,22.512 33.248,22.352C33.305,22.194 33.384,22.067 33.481,21.977C33.578,21.886 33.689,21.823 33.811,21.787C33.935,21.751 34.072,21.738 34.168,21.738C34.308,21.738 34.461,21.773 34.461,21.773C34.513,21.778 34.541,21.748 34.559,21.704C34.606,21.588 34.736,21.238 34.76,21.169" style="fill:white;fill-rule:nonzero;"/>
                <path d="M28.203,19.106C28.118,19.08 28.041,19.062 27.939,19.044C27.836,19.025 27.715,19.016 27.577,19.016C27.095,19.016 26.715,19.153 26.448,19.422C26.183,19.689 26.002,20.096 25.912,20.631L25.862,20.997L25.257,20.997C25.257,20.997 25.183,20.994 25.168,21.075L25.069,21.629C25.062,21.682 25.085,21.715 25.156,21.715L25.746,21.715L25.148,25.052C25.101,25.32 25.048,25.541 24.988,25.709C24.93,25.875 24.872,25.998 24.802,26.088C24.734,26.175 24.669,26.239 24.558,26.277C24.466,26.307 24.36,26.322 24.244,26.322C24.18,26.322 24.094,26.311 24.03,26.298C23.966,26.286 23.933,26.272 23.886,26.252C23.886,26.252 23.817,26.226 23.789,26.295C23.767,26.352 23.611,26.784 23.592,26.837C23.573,26.89 23.599,26.931 23.633,26.943C23.711,26.971 23.77,26.989 23.876,27.014C24.025,27.049 24.15,27.051 24.267,27.051C24.512,27.051 24.736,27.017 24.921,26.95C25.108,26.882 25.27,26.765 25.414,26.607C25.569,26.435 25.667,26.255 25.76,26.01C25.853,25.767 25.931,25.466 25.995,25.114L26.595,21.715L27.473,21.715C27.473,21.715 27.547,21.718 27.562,21.637L27.661,21.083C27.668,21.03 27.645,20.997 27.574,20.997L26.721,20.997C26.725,20.978 26.781,20.492 26.879,20.21C26.921,20.089 26.999,19.992 27.066,19.925C27.131,19.859 27.207,19.813 27.289,19.786C27.374,19.759 27.47,19.745 27.575,19.745C27.655,19.745 27.734,19.754 27.794,19.767C27.876,19.785 27.909,19.794 27.931,19.8C28.018,19.827 28.029,19.801 28.047,19.759L28.25,19.199C28.273,19.139 28.222,19.114 28.203,19.106M15.899,24.917C15.899,24.963 15.867,25 15.823,25L15.116,25C15.071,25 15.04,24.963 15.04,24.917L15.04,19.083C15.04,19.037 15.072,19.001 15.116,19.001L15.823,19.001C15.868,19.001 15.899,19.038 15.899,19.083L15.899,24.917Z" style="fill:white;fill-rule:nonzero;"/>
            </g>
        </g>
    </g>
</svg>
