<?xml version="1.0" encoding="UTF-8" standalone="no"?>
<!DOCTYPE svg PUBLIC "-//W3C//DTD SVG 1.1//EN" "http://www.w3.org/Graphics/SVG/1.1/DTD/svg11.dtd">
<svg width="100%" height="100%" viewBox="0 0 31 17" version="1.1" xmlns="http://www.w3.org/2000/svg" xmlns:xlink="http://www.w3.org/1999/xlink" xml:space="preserve" xmlns:serif="http://www.serif.com/" style="fill-rule:evenodd;clip-rule:evenodd;stroke-linejoin:round;stroke-miterlimit:1.5;">
    <g transform="matrix(1,0,0,1,-3453.96,-204.167)">
        <g transform="matrix(1,0,0,1,-0.556256,0)">
            <g id="event">
                <g>
                    <g transform="matrix(1,0,0,1,0.556256,0)">
                        <circle cx="3461.98" cy="212.188" r="8.022"/>
                    </g>
                    <g transform="matrix(0.778246,0,0,0.778246,768.262,47.0535)">
                        <circle cx="3461.98" cy="212.188" r="8.022" style="fill:white;"/>
                    </g>
                </g>
                <g transform="matrix(6.12323e-17,-1,1,6.12323e-17,3251.84,3674.72)">
                    <g transform="matrix(1,0,0,1,0.556256,0.882027)">
                        <path d="M3461.98,220.21L3461.98,228.387" style="fill:none;stroke:black;stroke-width:1.5px;"/>
                    </g>
                    <g transform="matrix(-1,1.22465e-16,-1.22465e-16,-1,6903.16,447.252)">
                        <path d="M3440.62,213.961L3443.75,220.21L3437.5,220.21L3440.62,213.961Z"/>
                    </g>
                </g>
            </g>
        </g>
    </g>
</svg>
