<?xml version="1.0" encoding="UTF-8" standalone="no"?>
<!DOCTYPE svg PUBLIC "-//W3C//DTD SVG 1.1//EN" "http://www.w3.org/Graphics/SVG/1.1/DTD/svg11.dtd">
<svg width="100%" height="100%" viewBox="0 0 26 19" version="1.1" xmlns="http://www.w3.org/2000/svg" xmlns:xlink="http://www.w3.org/1999/xlink" xml:space="preserve" xmlns:serif="http://www.serif.com/" style="fill-rule:evenodd;clip-rule:evenodd;stroke-linejoin:round;stroke-miterlimit:2;">
    <g transform="matrix(1,0,0,1,-3612.65,-482.724)">
        <g transform="matrix(1,0,0,1,-0.556256,0)">
            <g id="icon-score" transform="matrix(0.75,0,0,0.75,3451.33,390.705)">
                <g transform="matrix(2.00317,0,0,2.00317,-6829,-840.943)">
                    <path d="M3524.91,490.616L3520.97,490.616L3520.97,489.8C3521.24,489.565 3521.51,489.331 3521.79,489.096C3522.07,488.862 3522.32,488.629 3522.56,488.397C3523.06,487.913 3523.4,487.528 3523.59,487.243C3523.77,486.958 3523.86,486.65 3523.86,486.319C3523.86,486.017 3523.76,485.781 3523.56,485.61C3523.36,485.44 3523.09,485.354 3522.73,485.354C3522.49,485.354 3522.24,485.396 3521.96,485.479C3521.68,485.563 3521.41,485.69 3521.15,485.862L3521.11,485.862L3521.11,485.042C3521.3,484.951 3521.54,484.867 3521.85,484.792C3522.16,484.716 3522.46,484.678 3522.75,484.678C3523.35,484.678 3523.81,484.822 3524.15,485.11C3524.49,485.398 3524.66,485.788 3524.66,486.28C3524.66,486.501 3524.63,486.708 3524.58,486.899C3524.52,487.091 3524.44,487.272 3524.33,487.444C3524.23,487.606 3524.11,487.764 3523.97,487.921C3523.83,488.077 3523.67,488.25 3523.47,488.44C3523.19,488.714 3522.91,488.979 3522.61,489.235C3522.31,489.492 3522.03,489.729 3521.78,489.948L3524.91,489.948L3524.91,490.616Z" style="fill:white;fill-rule:nonzero;stroke:rgb(13,13,13);stroke-width:0.43px;"/>
                    <path d="M3529.98,487.706C3529.98,488.75 3529.82,489.516 3529.49,490.005C3529.17,490.493 3528.66,490.737 3527.97,490.737C3527.27,490.737 3526.76,490.49 3526.44,489.995C3526.12,489.5 3525.96,488.74 3525.96,487.714C3525.96,486.68 3526.12,485.916 3526.45,485.423C3526.77,484.929 3527.28,484.682 3527.97,484.682C3528.67,484.682 3529.18,484.933 3529.5,485.434C3529.82,485.936 3529.98,486.693 3529.98,487.706ZM3528.96,489.479C3529.05,489.268 3529.11,489.02 3529.14,488.735C3529.17,488.45 3529.19,488.107 3529.19,487.706C3529.19,487.31 3529.17,486.966 3529.14,486.675C3529.11,486.383 3529.05,486.135 3528.95,485.932C3528.86,485.732 3528.74,485.581 3528.58,485.479C3528.42,485.378 3528.22,485.327 3527.97,485.327C3527.73,485.327 3527.53,485.378 3527.36,485.479C3527.2,485.581 3527.08,485.734 3526.98,485.94C3526.89,486.133 3526.83,486.384 3526.8,486.694C3526.77,487.004 3526.75,487.344 3526.75,487.714C3526.75,488.12 3526.77,488.46 3526.8,488.733C3526.83,489.007 3526.89,489.251 3526.98,489.468C3527.07,489.671 3527.19,489.826 3527.35,489.932C3527.5,490.039 3527.71,490.093 3527.97,490.093C3528.22,490.093 3528.42,490.042 3528.58,489.94C3528.74,489.839 3528.87,489.685 3528.96,489.479Z" style="fill:white;fill-rule:nonzero;stroke:rgb(13,13,13);stroke-width:0.43px;"/>
                </g>
                <g transform="matrix(-1.22306,0,0,1.33333,4667.46,-520.94)">
                    <path d="M3611.98,484.538L3611.98,500.895L3639.23,500.895L3639.23,484.538L3617.83,484.538" style="fill:none;stroke:black;stroke-width:0.95px;stroke-miterlimit:1.5;"/>
                </g>
                <g transform="matrix(1.33333,0,0,1.33333,-4603.1,-520.94)">
                    <g transform="matrix(0.67365,0,0,0.67365,1187.34,158.277)">
                        <path d="M3636.06,481.996L3636.06,486.639" style="fill:none;stroke:black;stroke-width:0.74px;stroke-miterlimit:1.5;"/>
                    </g>
                    <g transform="matrix(1,0,0,1,0.556256,0)">
                        <path d="M3634.6,484.538L3637.82,484.538" style="fill:none;stroke:black;stroke-width:0.5px;stroke-miterlimit:1.5;"/>
                    </g>
                </g>
            </g>
        </g>
    </g>
</svg>
