<?xml version="1.0" encoding="UTF-8" standalone="no"?>
<!DOCTYPE svg PUBLIC "-//W3C//DTD SVG 1.1//EN" "http://www.w3.org/Graphics/SVG/1.1/DTD/svg11.dtd">
<svg width="100%" height="100%" viewBox="0 0 20 17" version="1.1" xmlns="http://www.w3.org/2000/svg" xmlns:xlink="http://www.w3.org/1999/xlink" xml:space="preserve" xmlns:serif="http://www.serif.com/" style="fill-rule:evenodd;clip-rule:evenodd;stroke-linejoin:round;stroke-miterlimit:2;">
    <g transform="matrix(1,0,0,1,-3422.46,-38.9344)">
        <g transform="matrix(1,0,0,1,-0.556256,0)">
            <g transform="matrix(0.473799,0,0,0.473799,3421.17,35.6179)">
                <path d="M46.105,11.02C44.554,11.707 42.886,12.165 41.126,12.382C42.915,11.32 44.292,9.626 44.938,7.624C43.264,8.605 41.409,9.326 39.436,9.706C37.86,8.036 35.612,7 33.122,7C28.339,7 24.461,10.843 24.461,15.582C24.461,16.253 24.54,16.906 24.687,17.54C17.491,17.179 11.108,13.758 6.838,8.566C6.088,9.835 5.666,11.32 5.666,12.888C5.666,15.867 7.191,18.49 9.517,20.035C8.097,19.992 6.761,19.597 5.591,18.963L5.591,19.064C5.591,23.227 8.577,26.694 12.535,27.483C11.812,27.681 11.047,27.791 10.259,27.791C9.7,27.791 9.155,27.728 8.627,27.633C9.729,31.035 12.926,33.522 16.714,33.596C13.75,35.894 10.017,37.27 5.958,37.27C5.257,37.27 4.571,37.23 3.893,37.148C7.73,39.577 12.283,41 17.171,41C33.098,41 41.812,27.921 41.812,16.574C41.812,16.202 41.8,15.832 41.783,15.466C43.483,14.265 44.948,12.751 46.105,11.02" style="fill-rule:nonzero;"/>
            </g>
        </g>
    </g>
</svg>
