<?xml version="1.0" encoding="UTF-8" standalone="no"?>
<!DOCTYPE svg PUBLIC "-//W3C//DTD SVG 1.1//EN" "http://www.w3.org/Graphics/SVG/1.1/DTD/svg11.dtd">
<svg width="100%" height="100%" viewBox="0 0 46 44" version="1.1" xmlns="http://www.w3.org/2000/svg" xmlns:xlink="http://www.w3.org/1999/xlink" xml:space="preserve" xmlns:serif="http://www.serif.com/" style="fill-rule:evenodd;clip-rule:evenodd;stroke-linecap:round;stroke-linejoin:round;stroke-miterlimit:1.5;">
    <g transform="matrix(1,0,0,1,-3308.33,-114.476)">
        <g transform="matrix(1,0,0,1,-0.556256,0)">
            <g id="step-adaptive" transform="matrix(0.75,0,0,0.75,3154.05,34.4673)">
                <g>
                    <g>
                        <path d="M242.832,128.432C242.832,126.599 241.344,125.111 239.511,125.111L220.26,125.111C218.427,125.111 216.939,126.599 216.939,128.432L216.939,139.951C216.939,141.784 218.427,143.272 220.26,143.272L239.511,143.272C241.344,143.272 242.832,141.784 242.832,139.951L242.832,128.432Z" style="fill:white;stroke:black;stroke-width:0.95px;"/>
                        <g transform="matrix(1,0,0,1,216.464,124.636)">
                            <path d="M3.084,6.848L3.084,12.389" style="fill:none;stroke:black;stroke-width:1px;"/>
                        </g>
                        <g transform="matrix(1,0,0,1,236.9,124.636)">
                            <path d="M3.084,6.848L3.084,12.389" style="fill:none;stroke:black;stroke-width:1px;"/>
                        </g>
                        <g transform="matrix(1,0,0,1.47449,0,-59.8541)">
                            <path d="M218.58,126.144L229.886,133.411L241.207,126.153" style="fill:none;stroke:black;stroke-width:0.75px;"/>
                        </g>
                    </g>
                    <g transform="matrix(1,0,0,1,4.22279,1.82442)">
                        <path d="M242.832,128.432C242.832,126.599 241.344,125.111 239.511,125.111L220.26,125.111C218.427,125.111 216.939,126.599 216.939,128.432L216.939,139.951C216.939,141.784 218.427,143.272 220.26,143.272L239.511,143.272C241.344,143.272 242.832,141.784 242.832,139.951L242.832,128.432Z" style="fill:white;stroke:black;stroke-width:0.95px;"/>
                        <g transform="matrix(1,0,0,1,216.464,124.636)">
                            <path d="M3.084,6.848L3.084,12.389" style="fill:none;stroke:black;stroke-width:1px;"/>
                        </g>
                        <g transform="matrix(1,0,0,1,236.9,124.636)">
                            <path d="M3.084,6.848L3.084,12.389" style="fill:none;stroke:black;stroke-width:1px;"/>
                        </g>
                        <g transform="matrix(1,0,0,1.47449,0,-59.8541)">
                            <path d="M218.58,126.144L229.886,133.411L241.207,126.153" style="fill:none;stroke:black;stroke-width:0.75px;"/>
                        </g>
                    </g>
                    <g transform="matrix(1,0,0,1,8.44558,3.64885)">
                        <path d="M242.832,128.432C242.832,126.599 241.344,125.111 239.511,125.111L220.26,125.111C218.427,125.111 216.939,126.599 216.939,128.432L216.939,139.951C216.939,141.784 218.427,143.272 220.26,143.272L239.511,143.272C241.344,143.272 242.832,141.784 242.832,139.951L242.832,128.432Z" style="fill:white;stroke:black;stroke-width:0.95px;"/>
                        <g transform="matrix(1,0,0,1,216.464,124.636)">
                            <path d="M3.084,6.848L3.084,12.389" style="fill:none;stroke:black;stroke-width:1px;"/>
                        </g>
                        <g transform="matrix(1,0,0,1,236.9,124.636)">
                            <path d="M3.084,6.848L3.084,12.389" style="fill:none;stroke:black;stroke-width:1px;"/>
                        </g>
                        <g transform="matrix(1,0,0,1.47449,0,-59.8541)">
                            <path d="M218.58,126.144L229.886,133.411L241.207,126.153" style="fill:none;stroke:black;stroke-width:0.75px;"/>
                        </g>
                    </g>
                </g>
                <g transform="matrix(1.21693,0.544838,-0.544838,1.21693,-3743.82,-1844.83)">
                    <g transform="matrix(1,0,0,1,0.556256,0)">
                        <path d="M3332.35,114.637C3331.6,114.558 3330.85,114.519 3330.1,114.519C3318.19,114.519 3308.52,124.185 3308.52,136.092C3308.52,147.999 3318.19,157.666 3330.1,157.666C3342,157.666 3351.67,147.999 3351.67,136.092C3351.67,130.371 3349.4,124.883 3345.35,120.837L3344.29,121.899C3348.05,125.663 3350.17,130.769 3350.17,136.092C3350.17,147.171 3341.17,156.165 3330.1,156.165C3319.02,156.165 3310.02,147.171 3310.02,136.092C3310.02,125.014 3319.02,116.02 3330.1,116.02C3330.8,116.02 3331.5,116.057 3332.19,116.13L3332.35,114.637Z" style="fill:rgb(13,13,13);"/>
                    </g>
                    <g transform="matrix(0.70669,-0.707523,0.707523,0.70669,946.455,2341.68)">
                        <path d="M3266.3,121.854L3270.84,128.3L3261.76,128.3L3266.3,121.854Z" style="fill:rgb(13,13,13);"/>
                    </g>
                </g>
            </g>
        </g>
    </g>
</svg>
