<?xml version="1.0" encoding="UTF-8" standalone="no"?>
<!DOCTYPE svg PUBLIC "-//W3C//DTD SVG 1.1//EN" "http://www.w3.org/Graphics/SVG/1.1/DTD/svg11.dtd">
<svg width="100%" height="100%" viewBox="0 0 512 512" version="1.1" xmlns="http://www.w3.org/2000/svg" xmlns:xlink="http://www.w3.org/1999/xlink" xml:space="preserve" xmlns:serif="http://www.serif.com/" style="fill-rule:evenodd;clip-rule:evenodd;stroke-linejoin:round;stroke-miterlimit:2;">
    <path d="M346,301C337.723,301 331,307.723 331,316C331,324.277 337.723,331 346,331C354.277,331 361,324.277 361,316C361,307.723 354.277,301 346,301Z" style="fill:rgb(52,141,233);fill-rule:nonzero;"/>
    <path d="M256,0C115.391,0 0,115.391 0,256C0,396.609 115.391,512 256,512C396.609,512 512,396.609 512,256C512,115.391 396.609,0 256,0ZM181,358.238L181,391L151,391L151,358.238C133.578,352.023 121,335.531 121,316C121,296.469 133.578,279.977 151,273.762L151,121L181,121L181,273.762C198.422,279.977 211,296.469 211,316C211,335.531 198.422,352.023 181,358.238ZM271,391L241,391L241,238.238C223.578,232.023 211,215.531 211,196C211,176.469 223.578,159.977 241,153.762L241,121L271,121L271,153.762C288.422,159.977 301,176.469 301,196C301,215.531 288.422,232.023 271,238.238L271,391ZM361,358.238L361,391L331,391L331,358.238C313.578,352.023 301,335.531 301,316C301,296.469 313.578,279.977 331,273.762L331,121L361,121L361,273.762C378.422,279.977 391,296.469 391,316C391,335.531 378.422,352.023 361,358.238Z" style="fill:rgb(52,141,233);fill-rule:nonzero;"/>
    <path d="M256,181C247.723,181 241,187.723 241,196C241,204.277 247.723,211 256,211C264.277,211 271,204.277 271,196C271,187.723 264.277,181 256,181Z" style="fill:rgb(52,141,233);fill-rule:nonzero;"/>
    <path d="M166,301C157.723,301 151,307.723 151,316C151,324.277 157.723,331 166,331C174.277,331 181,324.277 181,316C181,307.723 174.277,301 166,301Z" style="fill:rgb(52,141,233);fill-rule:nonzero;"/>
</svg>
