<?xml version="1.0" encoding="UTF-8" standalone="no"?>
<!DOCTYPE svg PUBLIC "-//W3C//DTD SVG 1.1//EN" "http://www.w3.org/Graphics/SVG/1.1/DTD/svg11.dtd">
<svg width="100%" height="100%" viewBox="0 0 1400 980" version="1.1" xmlns="http://www.w3.org/2000/svg" xmlns:xlink="http://www.w3.org/1999/xlink" xml:space="preserve" xmlns:serif="http://www.serif.com/" style="fill-rule:evenodd;clip-rule:evenodd;stroke-linejoin:round;stroke-miterlimit:2;">
    <g>
        <g>
            <g>
                <rect x="0" y="0" width="1400" height="980" style="fill:white;"/>
            </g>
        </g>
        <g>
            <rect x="877.6" y="661.8" width="80.1" height="80.1" style="fill:rgb(230,231,232);"/>
        </g>
        <g>
            <path d="M696,607.5L653.3,564.8L696,522.1L738.7,564.8L696,607.5Z" style="fill:rgb(62,69,82);fill-rule:nonzero;"/>
        </g>
        <g>
            <circle cx="696" cy="436.7" r="41.3" style="fill:rgb(255,217,77);"/>
        </g>
        <g>
            <circle cx="894.4" cy="557.4" r="41.3" style="fill:rgb(47,139,232);"/>
        </g>
        <g>
            <rect x="589.8" y="282.6" width="216.2" height="55.8" style="fill:rgb(47,139,232);"/>
        </g>
        <g>
            <rect x="371.8" y="402" width="216.2" height="55.8" style="fill:rgb(62,69,82);"/>
        </g>
        <g>
            <rect x="797.6" y="402" width="216.2" height="55.8" style="fill:rgb(230,231,232);"/>
        </g>
        <g>
            <path d="M610.4,685.3C610.4,675.6 602.4,667.6 592.7,667.6L403.8,667.6C394.1,667.6 386.1,675.6 386.1,685.3L386.1,707.8C386.1,717.5 394.1,725.5 403.8,725.5L592.6,725.5C602.3,725.5 610.3,717.5 610.3,707.8L610.3,685.3L610.4,685.3Z" style="fill:rgb(36,168,255);fill-rule:nonzero;"/>
        </g>
        <g>
            <g>
                <path d="M795.8,339.4L588,339.4C586.4,339.4 585.2,338.1 585.2,336.6L585.2,263.4C585.2,261.8 586.5,260.6 588,260.6L795.8,260.6C797.4,260.6 798.6,261.9 798.6,263.4L798.6,336.6C798.6,338.2 797.4,339.4 795.8,339.4ZM590.8,333.7L792.9,333.7L792.9,266.2L590.8,266.2L590.8,333.7Z" style="fill-rule:nonzero;"/>
            </g>
            <g>
                <path d="M1003.6,462.3L795.8,462.3C794.2,462.3 793,461 793,459.5L793,386.3C793,384.7 794.3,383.5 795.8,383.5L1003.6,383.5C1005.2,383.5 1006.4,384.8 1006.4,386.3L1006.4,459.5C1006.5,461.1 1005.2,462.3 1003.6,462.3ZM798.6,456.6L1000.7,456.6L1000.7,389.1L798.6,389.1L798.6,456.6Z" style="fill-rule:nonzero;"/>
            </g>
            <g>
                <path d="M588,462.3L380.1,462.3C378.5,462.3 377.3,461 377.3,459.5L377.3,386.3C377.3,384.7 378.6,383.5 380.1,383.5L588,383.5C589.6,383.5 590.8,384.8 590.8,386.3L590.8,459.5C590.8,461.1 589.5,462.3 588,462.3ZM383,456.6L585.1,456.6L585.1,389.1L383,389.1L383,456.6Z" style="fill-rule:nonzero;"/>
            </g>
            <g>
                <path d="M691.9,466.4C667.9,466.4 648.4,446.9 648.4,422.9C648.4,398.9 667.9,379.4 691.9,379.4C715.9,379.4 735.4,398.9 735.4,422.9C735.4,446.9 715.9,466.4 691.9,466.4ZM691.9,385.1C671.1,385.1 654.1,402.1 654.1,422.9C654.1,443.7 671.1,460.7 691.9,460.7C712.7,460.7 729.7,443.7 729.7,422.9C729.7,402 712.7,385.1 691.9,385.1Z" style="fill-rule:nonzero;"/>
            </g>
            <g>
                <path d="M899.7,593.3C875.7,593.3 856.2,573.8 856.2,549.8C856.2,525.8 875.7,506.3 899.7,506.3C923.7,506.3 943.2,525.8 943.2,549.8C943.2,573.8 923.7,593.3 899.7,593.3ZM899.7,512C878.9,512 861.9,529 861.9,549.8C861.9,570.6 878.9,587.6 899.7,587.6C920.5,587.6 937.5,570.6 937.5,549.8C937.5,529 920.5,512 899.7,512Z" style="fill-rule:nonzero;"/>
            </g>
            <g>
                <path d="M795.8,425.7L732.5,425.7C730.9,425.7 729.7,424.4 729.7,422.9C729.7,421.4 731,420.1 732.5,420.1L795.8,420.1C797.4,420.1 798.6,421.4 798.6,422.9C798.6,424.4 797.4,425.7 795.8,425.7Z" style="fill-rule:nonzero;"/>
            </g>
            <g>
                <path d="M651.2,425.7L588,425.7C586.4,425.7 585.2,424.4 585.2,422.9C585.2,421.4 586.5,420.1 588,420.1L651.3,420.1C652.9,420.1 654.1,421.4 654.1,422.9C654.1,424.4 652.8,425.7 651.2,425.7Z" style="fill-rule:nonzero;"/>
            </g>
            <g>
                <path d="M691.9,385.1C690.3,385.1 689.1,383.8 689.1,382.3L689.1,336.6C689.1,335 690.4,333.8 691.9,333.8C693.5,333.8 694.7,335.1 694.7,336.6L694.7,382.3C694.7,383.8 693.5,385.1 691.9,385.1Z" style="fill-rule:nonzero;"/>
            </g>
            <g>
                <path d="M691.9,512C690.3,512 689.1,510.7 689.1,509.2L689.1,463.5C689.1,461.9 690.4,460.7 691.9,460.7C693.5,460.7 694.7,462 694.7,463.5L694.7,509.2C694.7,510.7 693.5,512 691.9,512Z" style="fill-rule:nonzero;"/>
            </g>
            <g>
                <path d="M691.9,601.1C691.1,601.1 690.4,600.8 689.9,600.3L645.4,555.8C644.3,554.7 644.3,552.9 645.4,551.8L689.9,507.3C691,506.2 692.8,506.2 693.9,507.3L738.4,551.8C738.9,552.3 739.2,553.1 739.2,553.8C739.2,554.6 738.9,555.3 738.4,555.8L693.9,600.3C693.4,600.8 692.6,601.1 691.9,601.1ZM651.4,553.7L691.9,594.2L732.4,553.7L691.9,513.2L651.4,553.7Z" style="fill-rule:nonzero;"/>
            </g>
            <g>
                <path d="M857.2,728.3C856.4,728.3 855.7,728 855.2,727.5C854.7,727 854.4,726.2 854.4,725.5L854.4,640.5C854.4,638.9 855.7,637.7 857.2,637.7L942.2,637.7C943.8,637.7 945,639 945,640.5L945,725.5C945,726.3 944.7,727 944.2,727.5C943.7,728 942.9,728.3 942.2,728.3L857.2,728.3ZM860,643.3L860,722.6L939.3,722.6L939.3,643.3L860,643.3Z" style="fill-rule:nonzero;"/>
            </g>
            <g>
                <path d="M899.7,512C898.1,512 896.9,510.7 896.9,509.2L896.9,459.5C896.9,457.9 898.2,456.7 899.7,456.7C901.3,456.7 902.5,458 902.5,459.5L902.5,509.2C902.5,510.7 901.3,512 899.7,512Z" style="fill-rule:nonzero;"/>
            </g>
            <g>
                <path d="M899.7,643C898.1,643 896.9,641.7 896.9,640.2L896.9,590.5C896.9,588.9 898.2,587.7 899.7,587.7C901.3,587.7 902.5,589 902.5,590.5L902.5,640.2C902.5,641.7 901.3,643 899.7,643Z" style="fill-rule:nonzero;"/>
            </g>
            <g>
                <path d="M859.3,556.5L736.4,556.5C734.8,556.5 733.6,555.2 733.6,553.7C733.6,552.1 734.9,550.9 736.4,550.9L859.2,550.9C860.8,550.9 862,552.2 862,553.7C862.1,555.3 860.8,556.5 859.3,556.5Z" style="fill-rule:nonzero;"/>
            </g>
            <g>
                <path d="M573.7,728.3L394.4,728.3C381.4,728.3 370.8,717.7 370.8,704.7L370.8,676.1C370.8,663.1 381.4,652.5 394.4,652.5L573.7,652.5C586.7,652.5 597.3,663.1 597.3,676.1L597.3,704.7C597.3,717.7 586.7,728.3 573.7,728.3ZM394.4,658.1C384.5,658.1 376.5,666.2 376.5,676L376.5,704.6C376.5,714.5 384.5,722.5 394.4,722.5L573.7,722.5C583.6,722.5 591.6,714.4 591.6,704.6L591.6,676C591.6,666.1 583.6,658.1 573.7,658.1L394.4,658.1Z" style="fill-rule:nonzero;"/>
            </g>
            <g>
                <path d="M498.2,658.1C496.6,658.1 495.4,656.8 495.4,655.3L495.4,579.4C495.4,563.7 508.2,550.9 523.9,550.9L647.3,550.9C648.9,550.9 650.1,552.2 650.1,553.7C650.1,555.3 648.8,556.5 647.3,556.5L523.9,556.5C511.3,556.5 501.1,566.7 501.1,579.3L501.1,655.2C501.1,656.9 499.8,658.1 498.2,658.1Z" style="fill-rule:nonzero;"/>
            </g>
            <g>
                <path d="M472.3,658.1C470.7,658.1 469.5,656.8 469.5,655.3L469.5,459.5C469.5,457.9 470.8,456.7 472.3,456.7C473.9,456.7 475.1,458 475.1,459.5L475.1,655.3C475.2,656.9 473.9,658.1 472.3,658.1Z" style="fill-rule:nonzero;"/>
            </g>
            <g>
                <path d="M691.9,728.3C690.3,728.3 689.1,727 689.1,725.5L689.1,598.2C689.1,596.6 690.4,595.4 691.9,595.4C693.5,595.4 694.7,596.7 694.7,598.2L694.7,725.4C694.7,727 693.5,728.3 691.9,728.3Z" style="fill-rule:nonzero;"/>
            </g>
            <g>
                <path d="M718.1,728.3C716.5,728.3 715.3,727 715.3,725.5L715.3,704.2C715.3,690.9 728.1,680.1 743.8,680.1L857.2,680.1C858.8,680.1 860,681.4 860,682.9C860,684.5 858.7,685.7 857.2,685.7L743.8,685.7C731.2,685.7 721,694 721,704.1L721,725.4C720.9,727 719.6,728.3 718.1,728.3Z" style="fill-rule:nonzero;"/>
            </g>
            <g>
                <path d="M752.5,728.3L654,728.3C652.4,728.3 651.2,727 651.2,725.5C651.2,724 652.5,722.7 654,722.7L752.6,722.7C754.2,722.7 755.4,724 755.4,725.5C755.4,727 754.1,728.3 752.5,728.3Z" style="fill-rule:nonzero;"/>
            </g>
        </g>
        <g>
            <g>
                <path d="M1151.2,530.7L1029.8,530.7C1028.2,530.7 1027,529.4 1027,527.9C1027,526.4 1028.3,525.1 1029.8,525.1L1151.2,525.1C1152.8,525.1 1154,526.4 1154,527.9C1154,529.4 1152.7,530.7 1151.2,530.7Z" style="fill-rule:nonzero;"/>
            </g>
            <g>
                <g>
                    <path d="M1320.9,560L1262.2,560C1260.6,560 1259.4,558.7 1259.4,557.2L1259.4,498.5C1259.4,496.9 1260.7,495.7 1262.2,495.7L1320.9,495.7C1322.5,495.7 1323.7,497 1323.7,498.5L1323.7,557.2C1323.7,558.8 1322.5,560 1320.9,560ZM1265,554.3L1318,554.3L1318,501.3L1265,501.3L1265,554.3Z" style="fill-rule:nonzero;"/>
                </g>
                <g>
                    <path d="M1287,542.8C1286.2,542.8 1285.5,542.5 1285,542L1269.8,526.8C1268.7,525.7 1268.7,523.9 1269.8,522.8C1270.9,521.7 1272.7,521.7 1273.8,522.8L1287,536L1309.2,513.8C1310.3,512.7 1312.1,512.7 1313.2,513.8C1314.3,514.9 1314.3,516.7 1313.2,517.8L1289,542C1288.5,542.5 1287.8,542.8 1287,542.8Z" style="fill-rule:nonzero;"/>
                </g>
            </g>
            <g>
                <path d="M1227,530.7L1183.1,530.7C1181.5,530.7 1180.3,529.4 1180.3,527.9C1180.3,526.4 1181.6,525.1 1183.1,525.1L1227,525.1C1228.6,525.1 1229.8,526.4 1229.8,527.9C1229.8,529.4 1228.6,530.7 1227,530.7Z" style="fill-rule:nonzero;"/>
            </g>
            <g>
                <path d="M1151.2,620.7L1029.8,620.7C1028.2,620.7 1027,619.4 1027,617.9C1027,616.4 1028.3,615.1 1029.8,615.1L1151.2,615.1C1152.8,615.1 1154,616.4 1154,617.9C1154,619.4 1152.7,620.7 1151.2,620.7Z" style="fill-rule:nonzero;"/>
            </g>
            <g>
                <g>
                    <path d="M1320.9,650.1L1262.2,650.1C1260.6,650.1 1259.4,648.8 1259.4,647.3L1259.4,588.6C1259.4,587 1260.7,585.8 1262.2,585.8L1320.9,585.8C1322.5,585.8 1323.7,587.1 1323.7,588.6L1323.7,647.3C1323.7,648.8 1322.5,650.1 1320.9,650.1ZM1265,644.4L1318,644.4L1318,591.4L1265,591.4L1265,644.4Z" style="fill-rule:nonzero;"/>
                </g>
                <g>
                    <path d="M1287,632.8C1286.2,632.8 1285.5,632.5 1285,632L1269.8,616.8C1268.7,615.7 1268.7,613.9 1269.8,612.8C1270.9,611.7 1272.7,611.7 1273.8,612.8L1287,626L1309.2,603.8C1310.3,602.7 1312.1,602.7 1313.2,603.8C1314.3,604.9 1314.3,606.7 1313.2,607.8L1289,632C1288.5,632.5 1287.8,632.8 1287,632.8Z" style="fill-rule:nonzero;"/>
                </g>
            </g>
            <g>
                <path d="M1227,620.7L1183.1,620.7C1181.5,620.7 1180.3,619.4 1180.3,617.9C1180.3,616.4 1181.6,615.1 1183.1,615.1L1227,615.1C1228.6,615.1 1229.8,616.4 1229.8,617.9C1229.8,619.4 1228.6,620.7 1227,620.7Z" style="fill-rule:nonzero;"/>
            </g>
            <g>
                <path d="M1151.2,710.8L1029.8,710.8C1028.2,710.8 1027,709.5 1027,708C1027,706.5 1028.3,705.2 1029.8,705.2L1151.2,705.2C1152.8,705.2 1154,706.5 1154,708C1154,709.5 1152.7,710.8 1151.2,710.8Z" style="fill-rule:nonzero;"/>
            </g>
            <g>
                <g>
                    <path d="M1320.9,740.1L1262.2,740.1C1260.6,740.1 1259.4,738.8 1259.4,737.3L1259.4,678.6C1259.4,677 1260.7,675.8 1262.2,675.8L1320.9,675.8C1322.5,675.8 1323.7,677.1 1323.7,678.6L1323.7,737.3C1323.7,738.8 1322.5,740.1 1320.9,740.1ZM1265,734.4L1318,734.4L1318,681.4L1265,681.4L1265,734.4Z" style="fill-rule:nonzero;"/>
                </g>
                <g>
                    <path d="M1287,722.9C1286.2,722.9 1285.5,722.6 1285,722.1L1269.8,706.9C1268.7,705.8 1268.7,704 1269.8,702.9C1270.9,701.8 1272.7,701.8 1273.8,702.9L1287,716L1309.2,693.8C1310.3,692.7 1312.1,692.7 1313.2,693.8C1314.3,694.9 1314.3,696.7 1313.2,697.8L1289,722C1288.5,722.6 1287.8,722.9 1287,722.9Z" style="fill-rule:nonzero;"/>
                </g>
            </g>
            <g>
                <path d="M1227,710.8L1183.1,710.8C1181.5,710.8 1180.3,709.5 1180.3,708C1180.3,706.5 1181.6,705.2 1183.1,705.2L1227,705.2C1228.6,705.2 1229.8,706.5 1229.8,708C1229.8,709.5 1228.6,710.8 1227,710.8Z" style="fill-rule:nonzero;"/>
            </g>
            <g>
                <path d="M1109.9,560L1029.7,560C1028.1,560 1026.9,558.7 1026.9,557.2C1026.9,555.7 1028.2,554.4 1029.7,554.4L1109.9,554.4C1111.5,554.4 1112.7,555.7 1112.7,557.2C1112.7,558.7 1111.5,560 1109.9,560Z" style="fill-rule:nonzero;"/>
            </g>
            <g>
                <path d="M1109.9,650.1L1029.7,650.1C1028.1,650.1 1026.9,648.8 1026.9,647.3C1026.9,645.8 1028.2,644.5 1029.7,644.5L1109.9,644.5C1111.5,644.5 1112.7,645.8 1112.7,647.3C1112.7,648.8 1111.5,650.1 1109.9,650.1Z" style="fill-rule:nonzero;"/>
            </g>
            <g>
                <path d="M1109.9,740.1L1029.7,740.1C1028.1,740.1 1026.9,738.8 1026.9,737.3C1026.9,735.8 1028.2,734.5 1029.7,734.5L1109.9,734.5C1111.5,734.5 1112.7,735.8 1112.7,737.3C1112.7,738.8 1111.5,740.1 1109.9,740.1Z" style="fill-rule:nonzero;"/>
            </g>
        </g>
        <g>
            <g>
                <g>
                    <path d="M938.4,76.4L896.2,118.6L896.2,327.7L1091.5,327.7L1091.5,76.4L938.4,76.4Z" style="fill:white;fill-rule:nonzero;"/>
                    <path d="M1091.5,330.5L896.2,330.5C894.6,330.5 893.4,329.2 893.4,327.7L893.4,118.6C893.4,117.8 893.7,117.1 894.2,116.6L936.4,74.4C936.9,73.9 937.7,73.6 938.4,73.6L1091.6,73.6C1093.2,73.6 1094.4,74.9 1094.4,76.4L1094.4,327.7C1094.4,329.3 1093.1,330.5 1091.5,330.5ZM899,324.9L1088.7,324.9L1088.7,79.2L939.5,79.2L899,119.8L899,324.9Z" style="fill:rgb(35,31,32);fill-rule:nonzero;"/>
                </g>
                <g>
                    <path d="M938.4,118.6L938.4,76.4L896.2,118.6L938.4,118.6Z" style="fill:white;fill-rule:nonzero;"/>
                    <path d="M938.4,121.5L896.2,121.5C895,121.5 894,120.8 893.6,119.7C893.2,118.6 893.4,117.4 894.2,116.6L936.4,74.4C937.2,73.6 938.4,73.3 939.5,73.8C940.6,74.2 941.3,75.3 941.3,76.4L941.3,118.6C941.2,120.2 939.9,121.5 938.4,121.5ZM903,115.8L935.5,115.8L935.5,83.3L903,115.8Z" style="fill:rgb(35,31,32);fill-rule:nonzero;"/>
                </g>
            </g>
            <g>
                <path d="M1108.3,143C1108.3,121.1 1082.3,119.1 1082.3,119.1L1002,119.1L1002,143L982.7,143L982.7,338.4L1234,338.4L1234,143L1108.3,143Z" style="fill:rgb(255,217,77);fill-rule:nonzero;"/>
                <path d="M1234,341.2L982.7,341.2C981.1,341.2 979.9,339.9 979.9,338.4L979.9,143C979.9,141.4 981.2,140.2 982.7,140.2L999.2,140.2L999.2,119.2C999.2,117.6 1000.5,116.4 1002,116.4L1082.4,116.4C1092,117.1 1109.3,123.1 1111.1,140.3L1234,140.3C1235.6,140.3 1236.8,141.6 1236.8,143.1L1236.8,338.5C1236.8,340 1235.5,341.2 1234,341.2ZM985.5,335.5L1231.1,335.5L1231.1,145.9L1108.3,145.9C1106.7,145.9 1105.5,144.6 1105.5,143.1C1105.5,124.1 1083.1,122.1 1082.2,122L1004.9,122L1004.9,143C1004.9,144.6 1003.6,145.8 1002.1,145.8L985.6,145.8L985.6,335.5L985.5,335.5Z" style="fill:rgb(35,31,32);fill-rule:nonzero;"/>
            </g>
            <g>
                <rect x="1234" y="163.9" width="38.7" height="174.5" style="fill:rgb(230,231,232);"/>
                <path d="M1272.6,341.2L1234,341.2C1232.4,341.2 1231.2,339.9 1231.2,338.4L1231.2,163.9C1231.2,162.3 1232.5,161.1 1234,161.1L1272.7,161.1C1274.3,161.1 1275.5,162.4 1275.5,163.9L1275.5,338.4C1275.5,340 1274.2,341.2 1272.6,341.2ZM1236.8,335.5L1269.8,335.5L1269.8,166.7L1236.8,166.7L1236.8,335.5Z" style="fill:rgb(35,31,32);fill-rule:nonzero;"/>
            </g>
            <g>
                <rect x="1272.6" y="187.3" width="38.7" height="151.1" style="fill:rgb(230,231,232);"/>
                <path d="M1311.3,341.2L1272.6,341.2C1271,341.2 1269.8,339.9 1269.8,338.4L1269.8,187.3C1269.8,185.7 1271.1,184.5 1272.6,184.5L1311.3,184.5C1312.9,184.5 1314.1,185.8 1314.1,187.3L1314.1,338.4C1314.1,340 1312.9,341.2 1311.3,341.2ZM1275.5,335.5L1308.5,335.5L1308.5,190.1L1275.5,190.1L1275.5,335.5Z" style="fill:rgb(35,31,32);fill-rule:nonzero;"/>
            </g>
            <g>
                <path d="M1113.9,302.1L1028.4,302.1C1026.8,302.1 1025.6,300.8 1025.6,299.3C1025.6,297.8 1026.9,296.5 1028.4,296.5L1113.9,296.5C1115.5,296.5 1116.7,297.8 1116.7,299.3C1116.7,300.8 1115.5,302.1 1113.9,302.1Z" style="fill:rgb(35,31,32);fill-rule:nonzero;"/>
            </g>
            <g>
                <path d="M1113.9,271.5L1028.4,271.5C1026.8,271.5 1025.6,270.2 1025.6,268.7C1025.6,267.1 1026.9,265.9 1028.4,265.9L1113.9,265.9C1115.5,265.9 1116.7,267.2 1116.7,268.7C1116.7,270.3 1115.5,271.5 1113.9,271.5Z" style="fill:rgb(35,31,32);fill-rule:nonzero;"/>
            </g>
            <g>
                <path d="M1028.4,145.9L1002,145.9C1000.4,145.9 999.2,144.6 999.2,143.1C999.2,141.5 1000.5,140.3 1002,140.3L1028.4,140.3C1030,140.3 1031.2,141.6 1031.2,143.1C1031.3,144.6 1030,145.9 1028.4,145.9Z" style="fill:rgb(35,31,32);fill-rule:nonzero;"/>
            </g>
            <g>
                <path d="M982.7,282.7L932.8,282.7C931.2,282.7 930,281.4 930,279.9C930,278.3 931.3,277.1 932.8,277.1L982.7,277.1C984.3,277.1 985.5,278.4 985.5,279.9C985.5,281.5 984.2,282.7 982.7,282.7Z" style="fill:rgb(35,31,32);fill-rule:nonzero;"/>
            </g>
            <g>
                <path d="M982.7,243.6L932.8,243.6C931.2,243.6 930,242.3 930,240.8C930,239.2 931.3,238 932.8,238L982.7,238C984.3,238 985.5,239.3 985.5,240.8C985.5,242.3 984.2,243.6 982.7,243.6Z" style="fill:rgb(35,31,32);fill-rule:nonzero;"/>
            </g>
            <g>
                <path d="M982.7,204.4L932.8,204.4C931.2,204.4 930,203.1 930,201.6C930,200 931.3,198.8 932.8,198.8L982.7,198.8C984.3,198.8 985.5,200.1 985.5,201.6C985.5,203.1 984.2,204.4 982.7,204.4Z" style="fill:rgb(35,31,32);fill-rule:nonzero;"/>
            </g>
            <g>
                <path d="M982.7,165.2L932.8,165.2C931.2,165.2 930,163.9 930,162.4C930,160.9 931.3,159.6 932.8,159.6L982.7,159.6C984.3,159.6 985.5,160.9 985.5,162.4C985.5,163.9 984.2,165.2 982.7,165.2Z" style="fill:rgb(35,31,32);fill-rule:nonzero;"/>
            </g>
        </g>
        <g>
            <g>
                <rect x="104.6" y="74" width="385" height="226.6" style="fill:rgb(230,231,232);"/>
                <path d="M489.6,303.5L104.6,303.5C103,303.5 101.8,302.2 101.8,300.7L101.8,74C101.8,72.4 103.1,71.2 104.6,71.2L489.6,71.2C491.2,71.2 492.4,72.5 492.4,74L492.4,300.6C492.4,302.2 491.2,303.5 489.6,303.5ZM107.5,297.8L486.8,297.8L486.8,76.9L107.5,76.9L107.5,297.8Z" style="fill-rule:nonzero;"/>
            </g>
            <g>
                <rect x="120.9" y="89.6" width="352.4" height="195.6" style="fill:rgb(47,139,232);"/>
                <path d="M473.3,288L120.9,288C119.3,288 118.1,286.7 118.1,285.2L118.1,89.6C118.1,88 119.4,86.8 120.9,86.8L473.3,86.8C474.9,86.8 476.1,88.1 476.1,89.6L476.1,285.2C476.1,286.7 474.9,288 473.3,288ZM123.8,282.3L470.5,282.3L470.5,92.4L123.8,92.4L123.8,282.3Z" style="fill-rule:nonzero;"/>
            </g>
            <g>
                <rect x="72" y="300.7" width="450.2" height="29.5" style="fill:rgb(230,231,232);"/>
                <path d="M522.2,333L72,333C70.4,333 69.2,331.7 69.2,330.2L69.2,300.7C69.2,299.1 70.5,297.9 72,297.9L522.2,297.9C523.8,297.9 525,299.2 525,300.7L525,330.2C525,331.7 523.8,333 522.2,333ZM74.9,327.3L519.4,327.3L519.4,303.5L74.9,303.5L74.9,327.3Z" style="fill-rule:nonzero;"/>
            </g>
            <g>
                <path d="M348.7,318.3L245.5,318.3C243.9,318.3 242.7,317 242.7,315.5L242.7,300.8C242.7,299.2 244,298 245.5,298L348.7,298C350.3,298 351.5,299.3 351.5,300.8L351.5,315.5C351.6,317 350.3,318.3 348.7,318.3ZM248.3,312.6L345.8,312.6L345.8,303.5L248.3,303.5L248.3,312.6Z" style="fill:rgb(35,31,32);fill-rule:nonzero;"/>
            </g>
        </g>
        <g transform="matrix(2.43463,0,0,2.43463,-198.943,-906.958)">
            <path d="M126.6,560C118.3,560 111.6,553.3 111.6,545C111.6,536.7 118.3,530 126.6,530C134.9,530 141.6,536.7 141.6,545C141.6,553.3 134.9,560 126.6,560ZM126.6,535.6C121.4,535.6 117.3,539.8 117.3,544.9C117.3,550 121.5,554.2 126.6,554.2C131.8,554.2 135.9,550 135.9,544.9C135.9,539.8 131.8,535.6 126.6,535.6Z" style="fill:rgb(35,31,32);fill-rule:nonzero;"/>
        </g>
        <g transform="matrix(0.385854,-0.92256,0.655521,0.274167,-342.815,739.604)">
            <path d="M472.3,658.1C470.7,658.1 469.5,656.8 469.5,655.3L469.5,459.5C469.5,457.9 470.8,456.7 472.3,456.7C473.9,456.7 475.1,458 475.1,459.5L475.1,655.3C475.2,656.9 473.9,658.1 472.3,658.1Z" style="fill-rule:nonzero;"/>
        </g>
        <g transform="matrix(-0.786119,-0.618076,0.316205,-0.402176,440.918,1063.27)">
            <path d="M472.3,658.1C470.7,658.1 469.5,656.8 469.5,655.3L469.5,459.5C469.5,457.9 470.8,456.7 472.3,456.7C473.9,456.7 475.1,458 475.1,459.5L475.1,655.3C475.2,656.9 473.9,658.1 472.3,658.1Z" style="fill-rule:nonzero;"/>
        </g>
        <g transform="matrix(2.43463,0,0,2.43463,-6.56147,-836.873)">
            <path d="M126.6,560C118.3,560 111.6,553.3 111.6,545C111.6,536.7 118.3,530 126.6,530C134.9,530 141.6,536.7 141.6,545C141.6,553.3 134.9,560 126.6,560ZM126.6,535.6C121.4,535.6 117.3,539.8 117.3,544.9C117.3,550 121.5,554.2 126.6,554.2C131.8,554.2 135.9,550 135.9,544.9C135.9,539.8 131.8,535.6 126.6,535.6Z" style="fill:rgb(35,31,32);fill-rule:nonzero;"/>
        </g>
        <g transform="matrix(2.43463,0,0,2.43463,-109.543,-714.573)">
            <path d="M126.6,560C118.3,560 111.6,553.3 111.6,545C111.6,536.7 118.3,530 126.6,530C134.9,530 141.6,536.7 141.6,545C141.6,553.3 134.9,560 126.6,560ZM126.6,535.6C121.4,535.6 117.3,539.8 117.3,544.9C117.3,550 121.5,554.2 126.6,554.2C131.8,554.2 135.9,550 135.9,544.9C135.9,539.8 131.8,535.6 126.6,535.6Z" style="fill:rgb(35,31,32);fill-rule:nonzero;"/>
        </g>
        <g>
            <path d="M374.3,187.4C374.3,230 339.7,264.6 297.1,264.6C254.5,264.6 219.9,230 219.9,187.4C219.9,144.8 254.5,110.2 297.1,110.2C339.7,110.2 374.3,144.7 374.3,187.4Z" style="fill:white;fill-rule:nonzero;"/>
            <path d="M297.1,267.4C253,267.4 217.1,231.5 217.1,187.4C217.1,143.3 253,107.4 297.1,107.4C341.2,107.4 377.2,143.3 377.2,187.4C377.2,231.5 341.2,267.4 297.1,267.4ZM297.1,113C256.1,113 222.7,146.4 222.7,187.4C222.7,228.4 256.1,261.8 297.1,261.8C338.1,261.8 371.5,228.4 371.5,187.4C371.5,146.4 338.1,113 297.1,113Z" style="fill:rgb(35,31,32);fill-rule:nonzero;"/>
        </g>
        <g>
            <path d="M343.6,272.3C342.6,272.3 341.7,271.8 341.1,270.9C340.3,269.5 340.8,267.8 342.2,267C348,263.7 353.5,259.7 358.5,255.2C366.5,248 373,239.5 378,230.1C378.7,228.7 380.5,228.2 381.8,228.9C383.2,229.6 383.7,231.4 383,232.7C377.7,242.7 370.7,251.7 362.3,259.4C357,264.2 351.2,268.4 345,271.9C344.5,272.1 344,272.3 343.6,272.3Z" style="fill:rgb(35,31,32);fill-rule:nonzero;"/>
        </g>
        <g>
            <path d="M391.4,190.2C389.8,190.2 388.6,188.9 388.6,187.4C388.6,181.2 388,175 386.7,169C386.4,167.5 387.4,166 388.9,165.6C390.5,165.3 391.9,166.3 392.3,167.8C393.6,174.2 394.3,180.8 394.3,187.4C394.2,188.9 393,190.2 391.4,190.2Z" style="fill:rgb(35,31,32);fill-rule:nonzero;"/>
        </g>
        <g>
            <path d="M379,143.4C378,143.4 377.1,142.9 376.5,142C371.1,132.6 364.2,124.3 355.9,117.3C354.7,116.3 354.5,114.5 355.5,113.3C356.5,112.1 358.3,111.9 359.5,112.9C368.3,120.3 375.7,129.1 381.4,139.1C382.2,140.5 381.7,142.2 380.3,143C379.9,143.3 379.4,143.4 379,143.4Z" style="fill:rgb(35,31,32);fill-rule:nonzero;"/>
        </g>
        <g>
            <path d="M222.1,133.1C221.5,133.1 220.9,132.9 220.4,132.5C219.2,131.5 218.9,129.8 219.9,128.5C225.7,120.9 232.6,114.2 240.4,108.5C241.7,107.6 243.5,107.9 244.4,109.1C245.3,110.4 245,112.2 243.8,113.1C236.5,118.4 230,124.7 224.5,131.9C223.8,132.7 223,133.1 222.1,133.1Z" style="fill:rgb(35,31,32);fill-rule:nonzero;"/>
        </g>
        <g>
            <path d="M210.6,227.8C209.5,227.8 208.5,227.2 208,226.1C202.7,213.9 200,200.8 200,187.3C200,175.4 202.1,163.9 206.3,152.9C206.9,151.4 208.5,150.7 210,151.2C211.5,151.8 212.2,153.4 211.7,154.9C207.8,165.2 205.8,176.2 205.8,187.3C205.8,200 208.3,212.3 213.4,223.8C214,225.2 213.4,226.9 211.9,227.5C211.4,227.7 211,227.8 210.6,227.8Z" style="fill:rgb(35,31,32);fill-rule:nonzero;"/>
        </g>
        <g>
            <path d="M245.8,269.3C245.3,269.3 244.7,269.2 244.3,268.8C236.5,263.8 229.5,257.6 223.5,250.6C222.5,249.4 222.6,247.6 223.8,246.6C225,245.6 226.8,245.7 227.8,246.9C233.5,253.5 240.1,259.3 247.4,264C248.7,264.9 249.1,266.6 248.2,267.9C247.7,268.9 246.8,269.3 245.8,269.3Z" style="fill:rgb(35,31,32);fill-rule:nonzero;"/>
        </g>
        <g>
            <path d="M311.7,187.4C311.7,195.4 305.2,202 297.1,202C289.1,202 282.5,195.5 282.5,187.4C282.5,179.4 289,172.8 297.1,172.8C305.2,172.8 311.7,179.3 311.7,187.4Z" style="fill:rgb(255,217,77);fill-rule:nonzero;"/>
            <path d="M297.1,204.8C287.5,204.8 279.7,197 279.7,187.4C279.7,177.8 287.5,170 297.1,170C306.7,170 314.5,177.8 314.5,187.4C314.5,197 306.7,204.8 297.1,204.8ZM297.1,175.6C290.6,175.6 285.4,180.9 285.4,187.3C285.4,193.8 290.7,199 297.1,199C303.6,199 308.8,193.7 308.8,187.3C308.8,180.9 303.6,175.6 297.1,175.6Z" style="fill:rgb(35,31,32);fill-rule:nonzero;"/>
        </g>
        <g>
            <path d="M286.9,180C286.2,180 285.4,179.7 284.9,179.2L261.7,156C260.6,154.9 260.6,153.1 261.7,152C262.8,150.9 264.6,150.9 265.7,152L288.9,175.2C290,176.3 290,178.1 288.9,179.2C288.3,179.7 287.6,180 286.9,180Z" style="fill:rgb(35,31,32);fill-rule:nonzero;"/>
        </g>
        <g>
            <path d="M297.1,248.2C295.5,248.2 294.3,246.9 294.3,245.4L294.3,202C294.3,200.4 295.6,199.2 297.1,199.2C298.7,199.2 299.9,200.5 299.9,202L299.9,245.4C300,246.9 298.7,248.2 297.1,248.2Z" style="fill:rgb(35,31,32);fill-rule:nonzero;"/>
        </g>
        <g>
            <path d="M303.1,125.5L291.2,125.5C289.6,125.5 288.4,124.2 288.4,122.7C288.4,121.1 289.7,119.9 291.2,119.9L303.1,119.9C304.7,119.9 305.9,121.2 305.9,122.7C305.9,124.2 304.6,125.5 303.1,125.5Z" style="fill:rgb(35,31,32);fill-rule:nonzero;"/>
        </g>
        <g>
            <path d="M303.1,254.9L291.2,254.9C289.6,254.9 288.4,253.6 288.4,252.1C288.4,250.6 289.7,249.3 291.2,249.3L303.1,249.3C304.7,249.3 305.9,250.6 305.9,252.1C305.9,253.6 304.6,254.9 303.1,254.9Z" style="fill:rgb(35,31,32);fill-rule:nonzero;"/>
        </g>
        <g>
            <path d="M361.9,196.2C360.3,196.2 359.1,194.9 359.1,193.4L359.1,181.5C359.1,179.9 360.4,178.7 361.9,178.7C363.4,178.7 364.7,180 364.7,181.5L364.7,193.4C364.7,194.9 363.4,196.2 361.9,196.2Z" style="fill:rgb(35,31,32);fill-rule:nonzero;"/>
        </g>
        <g>
            <path d="M232.4,196.2C230.8,196.2 229.6,194.9 229.6,193.4L229.6,181.5C229.6,179.9 230.9,178.7 232.4,178.7C234,178.7 235.2,180 235.2,181.5L235.2,193.4C235.2,194.9 233.9,196.2 232.4,196.2Z" style="fill:rgb(35,31,32);fill-rule:nonzero;"/>
        </g>
        <g>
            <path d="M588,774.9L391.4,774.9C389.8,774.9 388.6,773.6 388.6,772.1C388.6,770.5 389.9,769.3 391.4,769.3L588,769.3C589.6,769.3 590.8,770.6 590.8,772.1C590.8,773.7 589.5,774.9 588,774.9Z" style="fill-rule:nonzero;"/>
        </g>
        <g>
            <path d="M588,807.2L391.4,807.2C389.8,807.2 388.6,805.9 388.6,804.4C388.6,802.8 389.9,801.6 391.4,801.6L588,801.6C589.6,801.6 590.8,802.9 590.8,804.4C590.8,805.9 589.5,807.2 588,807.2Z" style="fill-rule:nonzero;"/>
        </g>
        <g>
            <path d="M588,839.4L391.4,839.4C389.8,839.4 388.6,838.1 388.6,836.6C388.6,835 389.9,833.8 391.4,833.8L588,833.8C589.6,833.8 590.8,835.1 590.8,836.6C590.8,838.2 589.5,839.4 588,839.4Z" style="fill-rule:nonzero;"/>
        </g>
        <g>
            <path d="M588,871.7L391.4,871.7C389.8,871.7 388.6,870.4 388.6,868.9C388.6,867.4 389.9,866.1 391.4,866.1L588,866.1C589.6,866.1 590.8,867.4 590.8,868.9C590.8,870.4 589.5,871.7 588,871.7Z" style="fill-rule:nonzero;"/>
        </g>
        <g>
            <path d="M472.3,903.9L391.4,903.9C389.8,903.9 388.6,902.6 388.6,901.1C388.6,899.5 389.9,898.3 391.4,898.3L472.3,898.3C473.9,898.3 475.1,899.6 475.1,901.1C475.2,902.7 473.9,903.9 472.3,903.9Z" style="fill-rule:nonzero;"/>
        </g>
        <g>
            <path d="M691.9,876.4C690.3,876.4 689.1,875.1 689.1,873.6L689.1,772.1C689.1,770.5 690.4,769.3 691.9,769.3C693.5,769.3 694.7,770.6 694.7,772.1L694.7,873.6C694.7,875.2 693.5,876.4 691.9,876.4Z" style="fill-rule:nonzero;"/>
        </g>
        <g>
            <path d="M721.5,804.4C720.8,804.4 720,804.1 719.5,803.6L692,776.1L664.5,803.6C663.4,804.7 661.6,804.7 660.5,803.6C659.4,802.5 659.4,800.7 660.5,799.6L690,770.1C691.1,769 692.9,769 694,770.1L723.5,799.6C724.6,800.7 724.6,802.5 723.5,803.6C723,804.2 722.2,804.4 721.5,804.4Z" style="fill-rule:nonzero;"/>
        </g>
        <g>
            <rect x="89.6" y="670" width="234.3" height="234.3" style="fill:rgb(62,69,82);"/>
            <path d="M323.9,907.1L89.6,907.1C88,907.1 86.8,905.8 86.8,904.3L86.8,670C86.8,668.4 88.1,667.2 89.6,667.2L323.9,667.2C325.5,667.2 326.7,668.5 326.7,670L326.7,904.3C326.8,905.8 325.5,907.1 323.9,907.1ZM92.5,901.4L321.1,901.4L321.1,672.8L92.5,672.8L92.5,901.4Z" style="fill-rule:nonzero;"/>
        </g>
        <g>
            <g>
                <path d="M230.1,805.7L221.8,771.2L206.8,775L191.8,771.2L183.5,805.7C183.5,805.7 207.6,824.6 230.1,805.7Z" style="fill:white;fill-rule:nonzero;"/>
                <path d="M208,816.9C193.4,816.9 182.2,808.2 181.7,807.9C180.8,807.2 180.4,806.1 180.7,805L189,770.5C189.2,769.8 189.6,769.1 190.3,768.7C191,768.3 191.7,768.2 192.5,768.4L206.8,772L221.1,768.4C221.8,768.2 222.6,768.3 223.3,768.7C224,769.1 224.4,769.7 224.6,770.5L232.9,805C233.2,806 232.8,807.1 232,807.8C224.8,813.9 216.7,816.9 208,816.9ZM186.7,804.4C190,806.5 198.2,811.2 208,811.2C214.8,811.2 221.1,809 226.9,804.5L219.7,774.6L207.5,777.7C207,777.8 206.6,777.8 206.1,777.7L193.9,774.6L186.7,804.4Z" style="fill-rule:nonzero;"/>
            </g>
            <g>
                <path d="M272,831.4L230.1,805.6C207.6,824.6 183.5,805.6 183.5,805.6L141.6,831.4C116.4,850.5 112.2,904.2 112.2,904.2L159.2,904.2L159.2,871L159.2,904.2L254.4,904.2L254.4,871L254.4,904.2L301.4,904.2C301.4,904.3 297.3,850.5 272,831.4ZM247,859.9L220.3,859.9L220.3,839.3L247,839.3L247,859.9Z" style="fill:rgb(230,231,232);fill-rule:nonzero;"/>
                <path d="M301.4,907.1L112.1,907.1C111.3,907.1 110.5,906.8 110,906.2C109.5,905.6 109.2,904.8 109.3,904C109.5,901.8 113.9,848.7 139.8,829.1L182,803.2C183,802.6 184.3,802.6 185.2,803.4C185.3,803.5 195.4,811.2 208,811.2C215.3,811.2 222.1,808.6 228.2,803.4C229.1,802.6 230.5,802.5 231.5,803.1L273.4,828.9C299.6,848.7 304,901.7 304.1,903.9C304.2,904.7 303.9,905.5 303.4,906.1C303,906.8 302.2,907.1 301.4,907.1ZM257.1,901.4L298.3,901.4C297,889.9 290.9,849.2 270.4,833.7L230.4,809.1C223.7,814.3 216.2,816.9 208.1,816.9C196.5,816.9 187.1,811.5 183.4,809L143,833.9C122.6,849.3 116.6,890 115.3,901.5L156.3,901.5L156.3,871C156.3,869.4 157.6,868.2 159.1,868.2C160.7,868.2 161.9,869.5 161.9,871L161.9,901.4L251.5,901.4L251.5,871C251.5,869.4 252.8,868.2 254.3,868.2C255.8,868.2 257.1,869.5 257.1,871L257.1,901.4ZM247,862.7L220.3,862.7C218.7,862.7 217.5,861.4 217.5,859.9L217.5,839.3C217.5,837.7 218.8,836.5 220.3,836.5L247,836.5C248.6,836.5 249.8,837.8 249.8,839.3L249.8,859.9C249.8,861.5 248.6,862.7 247,862.7ZM223.1,857L244.2,857L244.2,842.1L223.1,842.1L223.1,857Z" style="fill-rule:nonzero;"/>
            </g>
            <g>
                <rect x="220.2" y="839.3" width="26.7" height="20.6" style="fill:rgb(47,139,232);"/>
                <path d="M247,862.7L220.3,862.7C218.7,862.7 217.5,861.4 217.5,859.9L217.5,839.3C217.5,837.7 218.8,836.5 220.3,836.5L247,836.5C248.6,836.5 249.8,837.8 249.8,839.3L249.8,859.9C249.8,861.5 248.6,862.7 247,862.7ZM223.1,857L244.2,857L244.2,842.1L223.1,842.1L223.1,857Z" style="fill-rule:nonzero;"/>
            </g>
        </g>
        <g>
            <path d="M1099.4,455.5L1042.9,422.9L1099.4,390.3L1099.4,455.5Z" style="fill:rgb(62,69,82);fill-rule:nonzero;"/>
            <path d="M1099.4,458.3C1098.9,458.3 1098.4,458.2 1098,457.9L1041.6,425.3C1040.7,424.8 1040.2,423.9 1040.2,422.8C1040.2,421.7 1040.7,420.8 1041.6,420.3L1098,387.7C1098.9,387.2 1100,387.2 1100.8,387.7C1101.7,388.2 1102.2,389.1 1102.2,390.2L1102.2,455.4C1102.2,456.4 1101.7,457.4 1100.8,457.9C1100.4,458.2 1099.9,458.3 1099.4,458.3ZM1048.6,422.9L1096.5,450.6L1096.5,395.3L1048.6,422.9Z" style="fill-rule:nonzero;"/>
        </g>
        <g>
            <path d="M1194.5,455.5L1138.1,422.9L1194.5,390.3L1194.5,455.5Z" style="fill:rgb(62,69,82);fill-rule:nonzero;"/>
            <path d="M1194.5,458.3C1194,458.3 1193.5,458.2 1193.1,457.9L1136.7,425.3C1135.8,424.8 1135.3,423.9 1135.3,422.8C1135.3,421.7 1135.8,420.8 1136.7,420.3L1193.1,387.7C1194,387.2 1195.1,387.2 1195.9,387.7C1196.8,388.2 1197.3,389.1 1197.3,390.2L1197.3,455.4C1197.3,456.4 1196.8,457.4 1195.9,457.9C1195.5,458.2 1195,458.3 1194.5,458.3ZM1143.8,422.9L1191.7,450.6L1191.7,395.3L1143.8,422.9Z" style="fill-rule:nonzero;"/>
        </g>
        <g>
            <path d="M1289.7,455.5L1233.3,422.9L1289.7,390.3L1289.7,455.5Z" style="fill:rgb(62,69,82);fill-rule:nonzero;"/>
            <path d="M1289.7,458.3C1289.2,458.3 1288.7,458.2 1288.3,457.9L1231.8,425.3C1230.9,424.8 1230.4,423.9 1230.4,422.8C1230.4,421.7 1230.9,420.8 1231.8,420.3L1288.3,387.7C1289.2,387.2 1290.3,387.2 1291.1,387.7C1292,388.2 1292.5,389.1 1292.5,390.2L1292.5,455.4C1292.5,456.4 1292,457.4 1291.1,457.9C1290.7,458.2 1290.2,458.3 1289.7,458.3ZM1239,422.9L1286.9,450.6L1286.9,395.3L1239,422.9Z" style="fill-rule:nonzero;"/>
        </g>
        <g>
            <path d="M843.8,771.2L786.7,725.5L786.7,901.1L1002,901.1L1002,771.2L843.8,771.2Z" style="fill:rgb(47,139,232);fill-rule:nonzero;"/>
            <path d="M1002,903.9L786.7,903.9C785.1,903.9 783.9,902.6 783.9,901.1L783.9,725.5C783.9,724.4 784.5,723.4 785.5,722.9C786.5,722.4 787.7,722.6 788.5,723.2L844.8,768.3L1002,768.3C1003.6,768.3 1004.8,769.6 1004.8,771.1L1004.8,901C1004.8,902.7 1003.6,903.9 1002,903.9ZM789.6,898.2L999.1,898.2L999.1,774L843.8,774C843.2,774 842.5,773.8 842,773.4L789.6,731.4L789.6,898.2Z" style="fill-rule:nonzero;"/>
        </g>
        <g>
            <g>
                <path d="M1240.6,805.4L1311.6,805.4C1300.3,785.2 1278.6,771.4 1253.8,771.5C1225.6,771.5 1201.6,789.1 1192,813.9L1002,813.9L1002,861.6L1192,861.6C1201.6,886.4 1225.6,904 1253.8,904C1278.7,904 1300.3,890.3 1311.6,870.1L1240.6,870.1L1240.6,805.4Z" style="fill:rgb(230,231,232);fill-rule:nonzero;"/>
                <path d="M1253.8,906.8C1226.1,906.8 1200.7,889.8 1190.1,864.4L1002,864.4C1000.4,864.4 999.2,863.1 999.2,861.6L999.2,813.9C999.2,812.3 1000.5,811.1 1002,811.1L1190.1,811.1C1200.8,785.6 1226.1,768.7 1253.8,768.7C1278.6,768.7 1301.5,782 1313.8,803.5C1314.3,804 1314.6,804.7 1314.6,805.5C1314.6,807.1 1313.3,808.3 1311.8,808.3L1243.5,808.3L1243.5,867.2L1311.7,867.2C1312.7,867.2 1313.6,867.7 1314.2,868.6C1314.7,869.5 1314.7,870.5 1314.2,871.4C1301.9,893.3 1278.8,906.8 1253.8,906.8ZM1004.8,858.7L1192,858.7C1193.2,858.7 1194.2,859.4 1194.7,860.5C1204.1,884.8 1227.9,901.1 1253.9,901.1C1275.2,901.1 1294.9,890.4 1306.7,872.8L1240.7,872.8C1239.9,872.8 1239.2,872.5 1238.7,872C1238.2,871.5 1237.9,870.7 1237.9,870L1237.9,805.4C1237.9,803.8 1239.2,802.6 1240.7,802.6L1306.7,802.6C1295,785.1 1275.2,774.4 1254,774.4C1227.9,774.4 1204.2,790.7 1194.8,815C1194.4,816.1 1193.3,816.8 1192.1,816.8L1004.9,816.8L1004.9,858.7L1004.8,858.7Z" style="fill:rgb(35,31,32);fill-rule:nonzero;"/>
            </g>
        </g>
        <g>
            <g>
                <path d="M973.6,870.4L965.1,870.4C963.5,870.4 962.3,869.1 962.3,867.6C962.3,866.1 963.6,864.8 965.1,864.8L970.8,864.8L970.8,859C970.8,857.4 972.1,856.2 973.6,856.2C975.2,856.2 976.4,857.5 976.4,859L976.4,867.5C976.5,869.1 975.2,870.4 973.6,870.4Z" style="fill:rgb(35,31,32);fill-rule:nonzero;"/>
            </g>
            <g>
                <path d="M949.3,870.4L933.5,870.4C931.9,870.4 930.7,869.1 930.7,867.6C930.7,866.1 932,864.8 933.5,864.8L949.3,864.8C950.9,864.8 952.1,866.1 952.1,867.6C952.1,869.1 950.9,870.4 949.3,870.4ZM917.7,870.4L901.9,870.4C900.3,870.4 899.1,869.1 899.1,867.6C899.1,866.1 900.4,864.8 901.9,864.8L917.7,864.8C919.3,864.8 920.5,866.1 920.5,867.6C920.5,869.1 919.3,870.4 917.7,870.4Z" style="fill:rgb(35,31,32);fill-rule:nonzero;"/>
            </g>
            <g>
                <path d="M886.1,870.4L877.6,870.4C876,870.4 874.8,869.1 874.8,867.6L874.8,859C874.8,857.4 876.1,856.2 877.6,856.2C879.2,856.2 880.4,857.5 880.4,859L880.4,864.7L886.1,864.7C887.7,864.7 888.9,866 888.9,867.5C888.9,869 887.7,870.4 886.1,870.4Z" style="fill:rgb(35,31,32);fill-rule:nonzero;"/>
            </g>
            <g>
                <path d="M877.6,848.3C876,848.3 874.8,847 874.8,845.5L874.8,832C874.8,830.4 876.1,829.2 877.6,829.2C879.2,829.2 880.4,830.5 880.4,832L880.4,845.5C880.4,847 879.2,848.3 877.6,848.3Z" style="fill:rgb(35,31,32);fill-rule:nonzero;"/>
            </g>
            <g>
                <path d="M877.6,821.3C876,821.3 874.8,820 874.8,818.5L874.8,810C874.8,808.4 876.1,807.2 877.6,807.2L886.1,807.2C887.7,807.2 888.9,808.5 888.9,810C888.9,811.5 887.6,812.8 886.1,812.8L880.4,812.8L880.4,818.5C880.4,820 879.2,821.3 877.6,821.3Z" style="fill:rgb(35,31,32);fill-rule:nonzero;"/>
            </g>
            <g>
                <path d="M949.3,812.7L933.5,812.7C931.9,812.7 930.7,811.4 930.7,809.9C930.7,808.4 932,807.1 933.5,807.1L949.3,807.1C950.9,807.1 952.1,808.4 952.1,809.9C952.1,811.4 950.9,812.7 949.3,812.7ZM917.7,812.7L901.9,812.7C900.3,812.7 899.1,811.4 899.1,809.9C899.1,808.4 900.4,807.1 901.9,807.1L917.7,807.1C919.3,807.1 920.5,808.4 920.5,809.9C920.5,811.4 919.3,812.7 917.7,812.7Z" style="fill:rgb(35,31,32);fill-rule:nonzero;"/>
            </g>
            <g>
                <path d="M973.6,821.3C972,821.3 970.8,820 970.8,818.5L970.8,812.8L965.1,812.8C963.5,812.8 962.3,811.5 962.3,810C962.3,808.5 963.6,807.2 965.1,807.2L973.6,807.2C975.2,807.2 976.4,808.5 976.4,810L976.4,818.5C976.5,820 975.2,821.3 973.6,821.3Z" style="fill:rgb(35,31,32);fill-rule:nonzero;"/>
            </g>
            <g>
                <path d="M973.6,848.3C972,848.3 970.8,847 970.8,845.5L970.8,832C970.8,830.4 972.1,829.2 973.6,829.2C975.2,829.2 976.4,830.5 976.4,832L976.4,845.5C976.5,847 975.2,848.3 973.6,848.3Z" style="fill:rgb(35,31,32);fill-rule:nonzero;"/>
            </g>
        </g>
        <g>
            <g>
                <path d="M904.5,835.4C901.9,835.7 899.5,836.7 897.4,838.3C891.6,843 890.6,851.6 895.3,857.4C896.3,858.6 897.4,859.6 898.8,860.5L899.8,861.1L899.2,862.1C897,865.9 894.3,869.2 891.2,872.2L890.4,873L889.6,872.2C887.4,870 884.5,868.7 881.4,868.3C877.8,867.9 874.3,869 871.5,871.2C867.9,874.1 866,878.7 866.5,883.3L866.6,884.5L865.5,884.7C861.3,885.3 857,885.3 852.8,884.7L851.6,884.6L851.7,883.4C852.1,879.8 851,876.3 848.8,873.5C846.5,870.7 843.2,868.9 839.6,868.5C836,868.1 832.5,869.2 829.7,871.4C829.3,871.7 828.9,872.1 828.6,872.4L827.8,873.2L827,872.4C825.4,870.9 823.9,869.3 822.6,867.6C821.3,866 820.1,864.2 818.9,862.3L818.3,861.3L819.3,860.7C819.7,860.4 820.1,860.1 820.5,859.8C826.3,855.1 827.3,846.5 822.5,840.6C820.2,837.8 817,836 813.4,835.6L812.3,835.5L812.4,834.3C812.8,830 813.7,825.9 815.1,821.9L815.5,820.8L816.6,821.2C817.6,821.5 818.6,821.7 819.6,821.8C823.2,822.2 826.7,821.1 829.6,818.9C835,814.5 836.3,806.8 832.5,801L831.9,800L832.9,799.4C836.5,797 840.4,795.1 844.5,793.7L845.6,793.3L846,794.4C846.5,795.9 847.3,797.3 848.3,798.6C850.6,801.4 853.9,803.2 857.5,803.6C861.1,804 864.6,802.9 867.4,800.7C869.4,799.1 871,796.9 871.8,794.4L872.2,793.3L873.3,793.7C877.4,795 881.3,796.8 884.8,799.2L885.8,799.8L885.2,800.8C882.2,805.7 882.5,812 886.2,816.5C888.5,819.3 891.7,821.1 895.4,821.5C897.4,821.7 899.5,821.5 901.4,820.8L902.5,820.4L902.9,821.5C904.4,825.5 905.4,829.7 905.8,834L905.9,835.1L904.5,835.4Z" style="fill:white;fill-rule:nonzero;"/>
                <path d="M859.1,888C856.9,888 854.7,887.9 852.5,887.6L851.4,887.4C849.9,887.2 848.8,885.8 848.9,884.3L849,883.1C849.3,880.2 848.5,877.5 846.7,875.2C844.9,872.9 842.3,871.5 839.4,871.2C836.5,870.9 833.8,871.7 831.5,873.5C831.2,873.7 830.9,874 830.7,874.3L829.8,875.2C828.7,876.3 827,876.3 825.8,875.2L825,874.4C823.3,872.8 821.8,871.1 820.3,869.4C818.9,867.7 817.7,865.9 816.4,863.8L815.8,862.8C815,861.5 815.4,859.7 816.7,858.9L817.7,858.3C818,858.1 818.4,857.9 818.7,857.6C820.9,855.8 822.3,853.3 822.6,850.4C822.9,847.5 822.1,844.7 820.3,842.5C818.5,840.3 816,838.9 813.1,838.5L812,838.4C810.5,838.2 809.4,836.9 809.5,835.3L809.6,834.1C810,829.6 810.9,825.2 812.5,821L812.9,819.9C813.4,818.5 815,817.7 816.5,818.2L817.6,818.6C818.3,818.8 819.1,819 819.9,819.1C822.8,819.4 825.6,818.6 827.8,816.8C832.1,813.4 833.1,807.3 830.1,802.6L829.5,801.6C828.7,800.3 829,798.6 830.3,797.7L831.3,797.1C835.1,794.5 839.3,792.5 843.6,791.1L844.7,790.7C846.2,790.2 847.8,791 848.3,792.5L848.7,793.6C849.1,794.8 849.7,795.9 850.5,797C852.3,799.2 854.9,800.6 857.8,800.9C860.6,801.2 863.4,800.4 865.7,798.6C867.3,797.3 868.5,795.6 869.2,793.6L869.5,792.5C870,791 871.6,790.2 873.1,790.7L874.2,791.1C878.6,792.5 882.7,794.4 886.4,796.9L887.4,797.6C888.7,798.4 889,800.1 888.2,801.5L887.6,802.5C885.2,806.4 885.5,811.4 888.4,814.9C890.2,817.1 892.8,818.5 895.7,818.8C897.3,819 898.9,818.8 900.4,818.2L901.5,817.8C903,817.3 904.6,818 905.1,819.5L905.5,820.6C907.1,824.8 908.2,829.3 908.6,833.9L908.7,835C908.9,836.5 907.7,837.9 906.2,838.1L905,838.2C902.9,838.4 901,839.2 899.4,840.5C894.8,844.2 894.1,851 897.8,855.6C898.6,856.6 899.5,857.4 900.6,858L901.6,858.6C902.9,859.4 903.4,861.2 902.5,862.5L901.9,863.5C899.6,867.4 896.7,871 893.4,874.2L892.5,875C891.4,876 889.6,876 888.6,875L887.8,874.2C886.1,872.5 883.8,871.4 881.3,871.1C878.5,870.8 875.7,871.6 873.5,873.4C870.6,875.7 869.1,879.3 869.6,883L869.7,884.1C869.9,885.6 868.8,887 867.3,887.3L866.1,887.5C863.6,887.8 861.3,888 859.1,888ZM854.7,882.1C857.6,882.4 860.6,882.4 863.6,882.1C863.5,877.1 865.7,872.3 869.7,869.1C873.1,866.4 877.3,865.1 881.7,865.5C884.9,865.8 887.9,867.1 890.4,869.1C892.5,867 894.4,864.6 896,862C894.9,861.2 894,860.3 893.1,859.2C887.4,852.1 888.5,841.8 895.6,836.1C897.6,834.5 900,833.4 902.5,832.8C902.1,829.8 901.4,826.9 900.5,824C898.7,824.4 896.8,824.6 894.9,824.4C890.5,823.9 886.6,821.8 883.8,818.4C879.8,813.4 879.1,806.5 881.8,800.8C879.3,799.3 876.6,798 873.8,797C872.7,799.4 871.1,801.5 869.1,803.1C865.7,805.8 861.5,807.1 857.1,806.6C852.7,806.1 848.8,804 846,800.6C845.1,799.5 844.4,798.3 843.8,797.1C840.9,798.2 838.2,799.5 835.6,801.1C839.1,808 837.3,816.4 831.2,821.3C827.9,824 823.5,825.3 819.2,824.8C818.5,824.7 817.9,824.6 817.2,824.5C816.3,827.3 815.6,830.2 815.3,833.2C819,834 822.3,836 824.7,839C827.5,842.4 828.7,846.7 828.2,851.1C827.7,855.5 825.6,859.4 822.2,862.2C822.1,862.2 822.1,862.3 822.1,862.3C823,863.6 823.9,864.9 824.8,866C825.7,867.2 826.8,868.3 827.8,869.4L827.9,869.3C831.3,866.5 835.6,865.3 839.9,865.7C844.3,866.2 848.2,868.3 851,871.7C853.5,874.7 854.8,878.3 854.7,882.1Z" style="fill:rgb(35,31,32);fill-rule:nonzero;"/>
            </g>
            <g>
                <path d="M833.7,836.1C835.1,822.3 847.4,812.4 861.2,813.8C874.9,815.2 884.9,827.5 883.5,841.3C882.1,855 869.8,865 856,863.6C842.3,862.2 832.3,849.9 833.7,836.1Z" style="fill:rgb(47,139,232);fill-rule:nonzero;"/>
                <path d="M858.7,866.6C857.7,866.6 856.8,866.6 855.8,866.4C840.5,864.8 829.4,851.1 831,835.8C832.6,820.6 846.1,809.4 861.6,810.9C876.9,812.5 888,826.2 886.4,841.5C884.9,855.8 873,866.6 858.7,866.6ZM858.6,816.5C847.2,816.5 837.7,825.1 836.6,836.4C835.3,848.6 844.2,859.5 856.4,860.8C868.8,862.1 879.5,853.1 880.8,841C882.1,828.8 873.2,817.9 861,816.6C860.2,816.6 859.4,816.5 858.6,816.5Z" style="fill-rule:nonzero;"/>
            </g>
        </g>
        <g>
            <path d="M243.1,750.8C243.1,770.9 226.8,787.1 206.8,787.1C186.7,787.1 170.5,770.8 170.5,750.8L170.5,730C170.5,709.9 186.8,693.7 206.8,693.7C226.9,693.7 243.1,710 243.1,730L243.1,750.8Z" style="fill:white;fill-rule:nonzero;"/>
            <path d="M206.8,790C185.2,790 167.6,772.4 167.6,750.8L167.6,730C167.6,708.4 185.2,690.8 206.8,690.8C228.4,690.8 246,708.4 246,730L246,750.8C246,772.4 228.4,790 206.8,790ZM206.8,696.5C188.3,696.5 173.3,711.5 173.3,730L173.3,750.8C173.3,769.3 188.3,784.3 206.8,784.3C225.3,784.3 240.3,769.3 240.3,750.8L240.3,730C240.3,711.5 225.2,696.5 206.8,696.5Z" style="fill-rule:nonzero;"/>
        </g>
    </g>
</svg>
